<?xml version="1.0" encoding="UTF-8" standalone="no"?>
<svg xmlns="http://www.w3.org/2000/svg"><symbol id="dx-ai-chat-fluent" viewBox="0 0 32 32"><path d="M11.998 21a2.071 2.071 0 0 1-1.96-1.391l-.791-2.431a3.808 3.808 0 0 0-.927-1.504 3.85 3.85 0 0 0-1.505-.934l-2.401-.781a2.076 2.076 0 0 1-1.037-3.163c.248-.354.6-.622 1.008-.766l2.439-.79a3.847 3.847 0 0 0 2.36-2.381l.798-2.454c.14-.417.41-.778.77-1.031a2.114 2.114 0 0 1 2.4 0c.35.247.614.596.756 1l.795 2.44a3.827 3.827 0 0 0 2.43 2.426l2.405.78c.436.139.815.415 1.082.787a2.071 2.071 0 0 1 0 2.393c-.247.35-.596.615-1 .759l-2.443.794a3.81 3.81 0 0 0-1.496.925c-.421.423-.74.938-.929 1.504l-.78 2.402a2.206 2.206 0 0 1-.768 1.033c-.352.25-.774.385-1.206.383Zm11.506 9a1.733 1.733 0 0 1-1.64-1.16l-.548-1.676a2.284 2.284 0 0 0-.559-.914 2.362 2.362 0 0 0-.914-.565l-1.653-.535a1.749 1.749 0 0 1-.867-.65 1.732 1.732 0 0 1 .841-2.643l1.681-.548a2.325 2.325 0 0 0 1.439-1.47l.535-1.65a1.732 1.732 0 0 1 2.654-.866c.295.207.517.502.634.842l.546 1.676a2.327 2.327 0 0 0 1.474 1.468l1.655.54a1.732 1.732 0 0 1 .05 3.292l-1.673.546a2.271 2.271 0 0 0-.91.56 2.356 2.356 0 0 0-.563.912l-.538 1.65a1.76 1.76 0 0 1-.65.866c-.29.208-.637.322-.994.325Z"/></symbol><symbol id="dx-ai-chat" viewBox="0 0 32 32"><path fill-rule="evenodd" d="M11.71 8.25C10.61 14.37 6.37 18.61.24 19.72c-.33.06-.33.51 0 .57 6.12 1.1 10.36 5.34 11.47 11.47.06.33.51.33.57 0 1.1-6.12 5.34-10.36 11.47-11.47.33-.06.33-.51 0-.57-6.12-1.1-10.36-5.34-11.47-11.47a.288.288 0 0 0-.57 0Z"/><path fill-rule="evenodd" d="M23.81.17c-.74 4.08-3.56 6.91-7.64 7.64-.22.04-.22.34 0 .38 4.08.74 6.91 3.56 7.64 7.64.04.22.34.22.38 0 .74-4.08 3.56-6.91 7.64-7.64.22-.04.22-.34 0-.38-4.08-.74-6.91-3.56-7.64-7.64a.192.192 0 0 0-.38 0Z"/></symbol><symbol id="dx-ai-fluent"><g clip-path="url(#a)"><path fill-rule="evenodd" d="M8.085 3.905c2.04-.365 3.45-1.78 3.82-3.82.02-.11.17-.11.19 0 .365 2.04 1.78 3.45 3.82 3.82.11.02.11.17 0 .19-2.04.365-3.45 1.78-3.82 3.82-.02.11-.17.11-.19 0-.365-2.04-1.78-3.45-3.82-3.82a.096.096 0 0 1 0-.19ZM.12 9.86c3.065-.555 5.185-2.675 5.735-5.735a.144.144 0 0 1 .285 0C6.695 7.19 8.815 9.31 11.875 9.86a.144.144 0 0 1 0 .285C8.81 10.7 6.69 12.82 6.14 15.88a.144.144 0 0 1-.285 0C5.3 12.815 3.18 10.695.12 10.145a.144.144 0 0 1 0-.285Z" clip-rule="evenodd"/></g><defs><clipPath id="a"><path d="M0 0h16v16H0z"/></clipPath></defs></symbol><symbol id="dx-ai-regenerate-fluent" viewBox="0 0 20 20"><path d="M4 10a6 6 0 0 1 10.472-4H12.5a.5.5 0 0 0 0 1h3a.5.5 0 0 0 .5-.5v-3a.5.5 0 0 0-1 0v1.601a7 7 0 1 0 1.98 4.361.5.5 0 1 0-.998.076A6 6 0 1 1 4 10Z"/></symbol><symbol id="dx-ai-regenerate" viewBox="0 0 17 16"><g clip-path="url(#clip0_102_111)"><path d="M16.003 8v6l-2.2-2.2c-1.2 1.9-3.4 3.2-5.8 3.2-3.9 0-7-3.1-7-7s3.1-7 7-7c3.2 0 5.8 2.1 6.7 5h-2.1c-.8-1.8-2.6-3-4.6-3-2.8 0-5 2.2-5 5s2.2 5 5 5c1.9 0 3.5-1.1 4.4-2.6l-2.4-2.4h6Z"/></g><defs><clipPath id="clip0_102_111"><rect width="16" height="16" transform="translate(0.00250244)"/></clipPath></defs></symbol><symbol id="dx-ai"><g clip-path="url(#a)"><path fill-rule="evenodd" d="M8.085 3.905c2.04-.365 3.45-1.78 3.82-3.82.02-.11.17-.11.19 0 .365 2.04 1.78 3.45 3.82 3.82.11.02.11.17 0 .19-2.04.365-3.45 1.78-3.82 3.82-.02.11-.17.11-.19 0-.365-2.04-1.78-3.45-3.82-3.82a.096.096 0 0 1 0-.19ZM.12 9.86c3.065-.555 5.185-2.675 5.735-5.735a.144.144 0 0 1 .285 0C6.695 7.19 8.815 9.31 11.875 9.86a.144.144 0 0 1 0 .285C8.81 10.7 6.69 12.82 6.14 15.88a.144.144 0 0 1-.285 0C5.3 12.815 3.18 10.695.12 10.145a.144.144 0 0 1 0-.285Z" clip-rule="evenodd"/></g><defs><clipPath id="a"><path d="M0 0h16v16H0z"/></clipPath></defs></symbol><symbol id="dx-apply-fluent" viewBox="0 0 20 20"><g id="checkmark"><path id="Vector" d="M3.374 10.168a.5.5 0 0 0-.748.664l4 4.5a.5.5 0 0 0 .728.022l10.5-10.5a.5.5 0 0 0-.707-.708L7.02 14.271l-3.647-4.103Z"/></g></symbol><symbol id="dx-apply" viewBox="0 0 16 16"><path fill-rule="evenodd" clip-rule="evenodd" d="m15.409 3.414-9.96 9.959L.5 8.423l1.5-1.5 3.536 3.536L13.994 2l1.415 1.414Z"/></symbol><symbol id="dx-arrow-down-fluent" viewBox="0 0 20 20"><path d="m10.002 15.29 2.645-2.644a.5.5 0 0 1 .707.707L9.886 16.82a.5.5 0 0 1-.384.179h-.001a.5.5 0 0 1-.354-.147l-.01-.01-3.49-3.49a.5.5 0 1 1 .707-.707l2.648 2.649V3.5a.5.5 0 0 1 1 0v11.79Z"/></symbol><symbol id="dx-arrow-down" viewBox="0 0 17 16"><path fill-rule="evenodd" clip-rule="evenodd" d="M9.002 10V1h-2v9h-3l4 5 4-5h-3Z"/></symbol><symbol id="dx-arrow-up-fluent" viewBox="0 0 20 20"><path d="M8.998 4.71 6.354 7.354a.5.5 0 1 1-.708-.707L9.115 3.18A.499.499 0 0 1 9.498 3H9.5a.5.5 0 0 1 .354.147l.01.01 3.49 3.49a.5.5 0 1 1-.707.707l-2.65-2.649V16.5a.5.5 0 0 1-1 0V4.71Z"/></symbol><symbol id="dx-arrow-up" viewBox="0 0 17 16"><path fill-rule="evenodd" clip-rule="evenodd" d="M9.002 6v9h-2V6h-3l4-5 4 5h-3Z"/></symbol><symbol id="dx-back-fluent" viewBox="0 0 20 20"><path d="M9.159 16.867a.5.5 0 1 0 .674-.739l-6.168-5.63h13.831a.5.5 0 0 0 0-1H3.668l6.165-5.629a.5.5 0 0 0-.674-.738L2.243 9.445a.746.746 0 0 0-.24.631.746.746 0 0 0 .24.477l6.916 6.314Z"/></symbol><symbol id="dx-back" viewBox="0 0 16 16"><g clip-path="url(#clip0_85_294)"><path d="M16 6.99v2.02H3.879l5.555 5.556L8 16 0 8l8-8 1.434 1.434L3.88 6.99H16Z"/></g><defs><clipPath id="clip0_85_294"><rect width="16" height="16"/></clipPath></defs></symbol><symbol id="dx-calendar-fluent" viewBox="0 0 20 20"><path d="M7 11a1 1 0 1 0 0-2 1 1 0 0 0 0 2Zm1 2a1 1 0 1 1-2 0 1 1 0 0 1 2 0Zm2-2a1 1 0 1 0 0-2 1 1 0 0 0 0 2Zm1 2a1 1 0 1 1-2 0 1 1 0 0 1 2 0Zm2-2a1 1 0 1 0 0-2 1 1 0 0 0 0 2Zm4-5.5A2.5 2.5 0 0 0 14.5 3h-9A2.5 2.5 0 0 0 3 5.5v9A2.5 2.5 0 0 0 5.5 17h9a2.5 2.5 0 0 0 2.5-2.5v-9ZM4 7h12v7.5a1.5 1.5 0 0 1-1.5 1.5h-9A1.5 1.5 0 0 1 4 14.5V7Zm1.5-3h9A1.5 1.5 0 0 1 16 5.5V6H4v-.5A1.5 1.5 0 0 1 5.5 4Z"/></symbol><symbol id="dx-calendar" viewBox="0 0 17 16"><path fill-rule="evenodd" clip-rule="evenodd" d="M4 0a1 1 0 0 0-1 1v1a2 2 0 0 0-2 2v10a2 2 0 0 0 2 2h10a2 2 0 0 0 2-2V4a2 2 0 0 0-2-2V1a1 1 0 1 0-2 0v1H5V1a1 1 0 0 0-1-1Zm1 14v-2H3v2h2Zm0-6v2H3V8h2Zm4 4H7v2h2v-2ZM7 8h2v2H7V8Zm6 6v-2h-2v2h2Zm0-6v2h-2V8h2ZM4 4a1 1 0 0 0-1 1v1h10V5a1 1 0 0 0-1-1H4Z"/></symbol><symbol id="dx-cancel-fluent" viewBox="0 0 20 20"><path d="m4.089 4.216.057-.07a.5.5 0 0 1 .638-.057l.07.057L10 9.293l5.146-5.147a.5.5 0 0 1 .638-.057l.07.057a.5.5 0 0 1 .057.638l-.057.07L10.707 10l5.147 5.146a.5.5 0 0 1 .057.638l-.057.07a.5.5 0 0 1-.638.057l-.07-.057L10 10.707l-5.146 5.147a.5.5 0 0 1-.638.057l-.07-.057a.5.5 0 0 1-.057-.638l.057-.07L9.293 10 4.146 4.854a.5.5 0 0 1-.057-.638l.057-.07-.057.07Z"/></symbol><symbol id="dx-cancel" viewBox="0 0 16 16"><path fill-rule="evenodd" clip-rule="evenodd" d="M14 12.5 12.5 14 8 9.5 3.5 14 2 12.5 6.5 8 2 3.5 3.5 2 8 6.5 12.5 2 14 3.5 9.5 8l4.5 4.5Z"/></symbol><symbol id="dx-caret-down-fluent" viewBox="0 0 20 20"><path d="M5.797 7a1 1 0 0 0-.778 1.628l3.814 4.723a1.5 1.5 0 0 0 2.334 0l3.814-4.723A1 1 0 0 0 14.203 7H5.797Z"/></symbol><symbol id="dx-caret-down" viewBox="0 0 16 16"><path fill-rule="evenodd" clip-rule="evenodd" d="m3 6 5 5 5-5H3Z"/></symbol><symbol id="dx-caret-left-fluent" viewBox="0 0 20 20"><path d="M12.909 14.203a1 1 0 0 1-1.629.778l-4.723-3.814a1.5 1.5 0 0 1 0-2.334L11.28 5.02a1 1 0 0 1 1.629.778v8.406Z"/></symbol><symbol id="dx-caret-left" viewBox="0 0 16 16"><path fill-rule="evenodd" clip-rule="evenodd" d="M10 3 5 8l5 5V3Z"/></symbol><symbol id="dx-caret-right-fluent" viewBox="0 0 20 20"><path d="M7 14.203a1 1 0 0 0 1.628.778l4.723-3.814a1.5 1.5 0 0 0 0-2.334L8.628 5.02A1 1 0 0 0 7 5.797v8.406Z"/></symbol><symbol id="dx-caret-right" viewBox="0 0 16 16"><path fill-rule="evenodd" clip-rule="evenodd" d="m6 3 5 5-5 5V3Z"/></symbol><symbol id="dx-caret-up-fluent" viewBox="0 0 20 20"><path d="M5.797 12.908a1 1 0 0 1-.778-1.628l3.814-4.723a1.5 1.5 0 0 1 2.334 0l3.814 4.723a1 1 0 0 1-.778 1.628H5.797Z"/></symbol><symbol id="dx-caret-up" viewBox="0 0 16 16"><path fill-rule="evenodd" clip-rule="evenodd" d="m3 10 5-5 5 5H3Z"/></symbol><symbol id="dx-checkmark-fluent" viewBox="0 0 12 12"><path d="M9.765 3.205a.75.75 0 0 1 .03 1.06l-4.25 4.5a.75.75 0 0 1-1.075.015L2.22 6.53a.75.75 0 0 1 1.06-1.06l1.705 1.704 3.72-3.939a.75.75 0 0 1 1.06-.03Z"/></symbol><symbol id="dx-checkmark" viewBox="0 0 16 16"><path fill-rule="evenodd" d="m15.409 3.414-9.96 9.959L.5 8.423l1.5-1.5 3.536 3.536L13.994 2l1.415 1.414Z" clip-rule="evenodd"/></symbol><symbol id="dx-chevron-double-left-fluent" viewBox="0 0 20 20"><path d="M11.354 15.853a.5.5 0 0 1-.707.001l-5.484-5.465a.55.55 0 0 1 0-.78l5.484-5.464a.5.5 0 0 1 .706.708L6.19 10l5.164 5.147a.5.5 0 0 1 .001.707Zm4 0a.5.5 0 0 1-.708.001l-5.484-5.465a.55.55 0 0 1 0-.78l5.484-5.464a.5.5 0 1 1 .706.708L10.187 10l5.165 5.147a.5.5 0 0 1 .001.707Z"/></symbol><symbol id="dx-chevron-double-left" viewBox="0 0 16 16"><path d="m7 15 1.5-1.5L3 8l5.5-5.5L7 1 0 8l7 7Z"/><path d="m13.5 15 1.5-1.5L9.5 8 15 2.5 13.5 1l-7 7 7 7Z"/></symbol><symbol id="dx-chevron-double-right-fluent" viewBox="0 0 20 20"><path d="M8.646 4.147a.5.5 0 0 1 .707-.001l5.484 5.465a.55.55 0 0 1 0 .779l-5.484 5.465a.5.5 0 0 1-.706-.708L13.812 10 8.647 4.854a.5.5 0 0 1-.001-.707Zm-4 0a.5.5 0 0 1 .707-.001l5.484 5.465a.55.55 0 0 1 0 .779l-5.484 5.465a.5.5 0 0 1-.706-.708L9.812 10 4.647 4.854a.5.5 0 0 1-.001-.707Z"/></symbol><symbol id="dx-chevron-double-right" viewBox="0 0 16 16"><path d="m9 15-1.5-1.5L13 8 7.5 2.5 9 1l7 7-7 7Z"/><path d="M2.5 15 1 13.5 6.5 8 1 2.5 2.5 1l7 7-7 7Z"/></symbol><symbol id="dx-chevron-down-fluent" viewBox="0 0 20 20"><path d="M15.853 7.646a.5.5 0 0 1 .001.707l-5.465 5.484a.55.55 0 0 1-.78 0L4.146 8.353a.5.5 0 1 1 .708-.706L10 12.812l5.147-5.165a.5.5 0 0 1 .707-.001Z"/></symbol><symbol id="dx-chevron-down-small-fluent" viewBox="0 0 12 12"><path d="M2.146 4.646a.5.5 0 0 1 .708 0L6 7.793l3.146-3.147a.5.5 0 1 1 .708.708l-3.5 3.5a.5.5 0 0 1-.708 0l-3.5-3.5a.5.5 0 0 1 0-.708Z"/></symbol><symbol id="dx-chevron-down-small" viewBox="0 0 16 16"><path d="M4.429 5.786 3 7.214l5 5 5-5-1.429-1.428L8 9.357 4.429 5.786Z"/></symbol><symbol id="dx-chevron-down" viewBox="0 0 16 16"><path fill-rule="evenodd" clip-rule="evenodd" d="M2.5 4 1 5.5l7 7 7-7L13.5 4 8 9.5 2.5 4Z"/></symbol><symbol id="dx-chevron-left-fluent" viewBox="0 0 20 20"><path d="M12.354 15.853a.5.5 0 0 1-.707.001L6.163 10.39a.55.55 0 0 1 0-.779l5.484-5.465a.5.5 0 0 1 .706.708L7.19 10l5.164 5.146a.5.5 0 0 1 .001.707Z"/></symbol><symbol id="dx-chevron-left-small" viewBox="0 0 16 16"><path d="M10.429 4.429 9 3 4 8l5 5 1.429-1.429L6.857 8l3.572-3.571Z"/></symbol><symbol id="dx-chevron-left" viewBox="0 0 16 16"><path fill-rule="evenodd" clip-rule="evenodd" d="M12 13.5 10.5 15l-7-7 7-7L12 2.5 6.5 8l5.5 5.5Z"/></symbol><symbol id="dx-chevron-right-fluent" viewBox="0 0 20 20"><path d="M7.646 4.147a.5.5 0 0 1 .707-.001l5.484 5.465a.55.55 0 0 1 0 .779l-5.484 5.465a.5.5 0 0 1-.706-.708L12.812 10 7.647 4.854a.5.5 0 0 1-.001-.707Z"/></symbol><symbol id="dx-chevron-right-small-fluent" viewBox="0 0 12 12"><path d="M4.646 2.146a.5.5 0 0 0 0 .708L7.793 6 4.646 9.146a.5.5 0 1 0 .708.708l3.5-3.5a.5.5 0 0 0 0-.708l-3.5-3.5a.5.5 0 0 0-.708 0Z"/></symbol><symbol id="dx-chevron-right-small" viewBox="0 0 16 16"><path d="M5 4.429 6.429 3l5 5-5 5L5 11.571 8.571 8 5 4.429Z"/></symbol><symbol id="dx-chevron-right" viewBox="0 0 16 16"><path fill-rule="evenodd" clip-rule="evenodd" d="M4 13.5 5.5 15l7-7-7-7L4 2.5 9.5 8 4 13.5Z"/></symbol><symbol id="dx-chevron-up-fluent" viewBox="0 0 20 20"><path d="M4.147 12.354a.5.5 0 0 1-.001-.707L9.61 6.163a.55.55 0 0 1 .779 0l5.465 5.484a.5.5 0 0 1-.708.706L10 7.188l-5.146 5.165a.5.5 0 0 1-.707.001Z"/></symbol><symbol id="dx-chevron-up-small" viewBox="0 0 16 16"><path d="M11.571 10.214 13 8.786l-5-5-5 5 1.429 1.428L8 6.643l3.571 3.571Z"/></symbol><symbol id="dx-chevron-up" viewBox="0 0 16 16"><path fill-rule="evenodd" clip-rule="evenodd" d="M2.5 12 1 10.5l7-7 7 7-1.5 1.5L8 6.5 2.5 12Z"/></symbol><symbol id="dx-clock-fluent" viewBox="0 0 20 20"><path d="M10 2a8 8 0 1 1 0 16 8 8 0 0 1 0-16Zm0 1a7 7 0 1 0 0 14 7 7 0 0 0 0-14Zm-.5 2a.5.5 0 0 1 .492.41L10 5.5V10h2.5a.5.5 0 0 1 .09.992L12.5 11h-3a.5.5 0 0 1-.492-.41L9 10.5v-5a.5.5 0 0 1 .5-.5Z"/></symbol><symbol id="dx-clock" viewBox="0 0 17 16"><path d="M7.003 4a1 1 0 0 1 2 0v3h2a1 1 0 1 1 0 2h-3a1 1 0 0 1-1-1V4Z"/><path fill-rule="evenodd" clip-rule="evenodd" d="M8.002 16a8 8 0 1 0 0-16 8 8 0 0 0 0 16Zm0-2a6 6 0 1 0 0-12 6 6 0 0 0 0 12Z"/></symbol><symbol id="dx-close-fluent" viewBox="0 0 20 20"><path d="m4.089 4.216.057-.07a.5.5 0 0 1 .638-.057l.07.057L10 9.293l5.146-5.147a.5.5 0 0 1 .638-.057l.07.057a.5.5 0 0 1 .057.638l-.057.07L10.707 10l5.147 5.146a.5.5 0 0 1 .057.638l-.057.07a.5.5 0 0 1-.638.057l-.07-.057L10 10.707l-5.146 5.147a.5.5 0 0 1-.638.057l-.07-.057a.5.5 0 0 1-.057-.638l.057-.07L9.293 10 4.146 4.854a.5.5 0 0 1-.057-.638l.057-.07-.057.07Z"/></symbol><symbol id="dx-close" viewBox="0 0 16 16"><path fill-rule="evenodd" clip-rule="evenodd" d="M13 11.51 11.51 13 8 9.487 4.49 13 3 11.51 6.51 8 3 4.49l1.49-1.49L8 6.51 11.51 3 13 4.489l-3.51 3.51L13 11.51Z"/></symbol><symbol id="dx-column-chooser-button" viewBox="0 0 16 16"><path fill-rule="evenodd" clip-rule="evenodd" d="M11.5 1.5h-9c-.6 0-1 .4-1 1v9c0 .6.4 1 1 1h9c.6 0 1-.4 1-1v-9c0-.6-.4-1-1-1Zm0 10h-9v-7h9v7Zm0-8h-9v-1h9v1Z"/><path opacity="0.5" d="M13.5 3.5h-1v1h1v9h-9v-1h-1v1c0 .6.4 1 1 1h9c.6 0 1-.4 1-1v-9c0-.6-.4-1-1-1Z"/><path opacity="0.5" d="M10.5 5.5h-7v5h7v-5Zm-1 4h-5v-1h5v1Zm0-2h-5v-1h5v1Z"/></symbol><symbol id="dx-column-chooser-drag-lock-fluent" viewBox="0 0 20 20"><path d="M10 2a3 3 0 0 0-3 3v1H6a3 3 0 0 0-3 3v6a3 3 0 0 0 3 3h8a3 3 0 0 0 3-3V9a3 3 0 0 0-3-3h-1V5a3 3 0 0 0-3-3ZM8 5a2 2 0 1 1 4 0v1H8V5Zm2 8a1 1 0 1 1 0-2 1 1 0 0 1 0 2Z"/></symbol><symbol id="dx-column-chooser-drag-lock" viewBox="0 0 16 16"><path fill-rule="evenodd" clip-rule="evenodd" d="M14 8c0-2-2-2-2-2s0-4-4-4-4 4-4 4-2 0-2 2v4c0 2 2 2 2 2h8s2 0 2-2V8ZM8 4c2 0 2 2 2 2H6s0-2 2-2Z"/></symbol><symbol id="dx-copy-fluent" viewBox="0 0 20 20"><path d="M8 2a2 2 0 0 0-2 2v10a2 2 0 0 0 2 2h6a2 2 0 0 0 2-2V4a2 2 0 0 0-2-2H8ZM7 4a1 1 0 0 1 1-1h6a1 1 0 0 1 1 1v10a1 1 0 0 1-1 1H8a1 1 0 0 1-1-1V4ZM4 6a2 2 0 0 1 1-1.732V14.5A2.5 2.5 0 0 0 7.5 17h6.232A2 2 0 0 1 12 18H7.5A3.5 3.5 0 0 1 4 14.5V6Z"/></symbol><symbol id="dx-copy" viewBox="0 0 16 16"><g clip-path="url(#clip0_3_3086)"><path d="M3 14h7V5H3m0-2h7c1.1 0 2 .9 2 2v9c0 1.1-.9 2-2 2H3c-1.1 0-2-.9-2-2V5c0-1.1.9-2 2-2Zm4-3h6c1.1 0 2 .9 2 2v8c0 2-2 2-2 2V2H5s0-2 2-2Z"/></g><defs><clipPath id="clip0_3_3086"><rect width="16" height="16"/></clipPath></defs></symbol><symbol id="dx-data-not-found-fluent" viewBox="0 0 48 48"><path d="M20.5 6C12.492 6 6 12.492 6 20.5c0 1.034.108 2.042.314 3.015a12.98 12.98 0 0 1 2.778-1.556A11.61 11.61 0 0 1 9 20.5C9 14.149 14.149 9 20.5 9S32 14.149 32 20.5c0 4.163-2.212 7.81-5.526 9.828a12.98 12.98 0 0 1 .515 3.142 14.509 14.509 0 0 0 2.649-1.711l9.801 9.801a1.5 1.5 0 1 0 2.121-2.121l-9.8-9.801A14.44 14.44 0 0 0 35 20.5C35 12.492 28.508 6 20.5 6Z"/><path fill-rule="evenodd" clip-rule="evenodd" d="M14 45c6.075 0 11-4.925 11-11s-4.925-11-11-11S3 27.925 3 34s4.925 11 11 11Zm5.707-16.707a1 1 0 0 1 0 1.414L15.414 34l4.293 4.293a1 1 0 0 1-1.414 1.414L14 35.414l-4.293 4.293a1 1 0 0 1-1.414-1.414L12.586 34l-4.293-4.293a1 1 0 1 1 1.414-1.414L14 32.586l4.293-4.293a1 1 0 0 1 1.414 0Z"/></symbol><symbol id="dx-data-not-found" viewBox="0 0 48 48"><path d="M29.07 16.1c.708-.707 1.769-1.06 2.83 0 1.06 1.061.706 2.122 0 2.829l-3.536 3.535L31.899 26c.707.707 1.061 1.768 0 2.828-1.06 1.06-2.121.707-2.828 0l-3.536-3.535L22 28.828c-.707.707-1.768 1.061-2.828 0-1.061-1.06-.708-2.121 0-2.828l3.535-3.536-3.535-3.535c-.708-.707-1.061-1.768 0-2.829 1.06-1.06 2.12-.707 2.828 0l3.535 3.536 3.536-3.535Z"/><path fill-rule="evenodd" clip-rule="evenodd" d="M15.719 35.11c6.34 4.996 15.246 4.552 21.13-1.332 6.364-6.364 6.364-16.263 0-22.627-6.364-6.364-16.263-6.364-22.627 0-5.884 5.884-6.328 14.79-1.332 21.13l-5.74 5.74a2 2 0 1 0 2.83 2.828l5.739-5.74Zm18.302-4.16c-4.394 4.393-12.577 4.393-16.97 0-4.394-4.394-4.394-12.577 0-16.97 4.393-4.394 12.576-4.394 16.97 0 4.393 4.393 4.393 12.576 0 16.97Z"/></symbol><symbol id="dx-dismiss-fluent" viewBox="0 0 20 20"><path d="m4.089 4.216.057-.07a.5.5 0 0 1 .638-.057l.07.057L10 9.293l5.146-5.147a.5.5 0 0 1 .638-.057l.07.057a.5.5 0 0 1 .057.638l-.057.07L10.707 10l5.147 5.146a.5.5 0 0 1 .057.638l-.057.07a.5.5 0 0 1-.638.057l-.07-.057L10 10.707l-5.146 5.147a.5.5 0 0 1-.638.057l-.07-.057a.5.5 0 0 1-.057-.638l.057-.07L9.293 10 4.146 4.854a.5.5 0 0 1-.057-.638l.057-.07-.057.07Z"/></symbol><symbol id="dx-dismiss" viewBox="0 0 16 16"><path fill-rule="evenodd" clip-rule="evenodd" d="m12.7 11.3-1.4 1.4L8 9.4l-3.3 3.3-1.4-1.4L6.6 8 3.3 4.7l1.4-1.4L8 6.6l3.3-3.3 1.4 1.4L9.4 8l3.3 3.3Z"/></symbol><symbol id="dx-drag-anchor-fluent" viewBox="0 0 20 20"><path d="M6.5 6a1.5 1.5 0 1 0 0-3 1.5 1.5 0 0 0 0 3Zm0 5a1.5 1.5 0 1 0 0-3 1.5 1.5 0 0 0 0 3ZM8 14.5a1.5 1.5 0 1 1-3 0 1.5 1.5 0 0 1 3 0ZM13.5 6a1.5 1.5 0 1 0 0-3 1.5 1.5 0 0 0 0 3ZM15 9.5a1.5 1.5 0 1 1-3 0 1.5 1.5 0 0 1 3 0ZM13.5 16a1.5 1.5 0 1 0 0-3 1.5 1.5 0 0 0 0 3Z"/></symbol><symbol id="dx-drag-anchor" viewBox="0 0 16 16"><path fill-rule="evenodd" clip-rule="evenodd" d="M9 15v-2h2v2H9Zm0-6h2v2H9V9Zm0-4h2v2H9V5Zm0-4h2v2H9V1ZM5 13h2v2H5v-2Zm0-4h2v2H5V9Zm0-4h2v2H5V5Zm0-4h2v2H5V1Z"/></symbol><symbol id="dx-drop-file" viewBox="0 0 49 48"><path d="M26.002 29h5l-7-7-7 7h5v8h4v-8Z"/><path fill-rule="evenodd" clip-rule="evenodd" d="M7.002 41c0 2.2 1.8 4 4 4h26c2.2 0 4-1.8 4-4V14l-11-11h-19c-2.2 0-4 1.8-4 4v34Zm23-27V7l7 7h-7Zm-4 4h11v23h-26V7h15v11Z"/></symbol><symbol id="dx-dropdown-down-fluent" viewBox="0 0 20 20"><path d="M15.853 7.646a.5.5 0 0 1 .001.707l-5.465 5.484a.55.55 0 0 1-.78 0L4.146 8.353a.5.5 0 1 1 .708-.706L10 12.812l5.147-5.165a.5.5 0 0 1 .707-.001Z"/></symbol><symbol id="dx-dropdown-down" viewBox="0 0 16 16"><path fill-rule="evenodd" clip-rule="evenodd" d="m3 6 5 5 5-5H3Z"/></symbol><symbol id="dx-dropdown-up-fluent" viewBox="0 0 20 20"><path d="M4.147 12.354a.5.5 0 0 1-.001-.707L9.61 6.163a.55.55 0 0 1 .779 0l5.465 5.484a.5.5 0 0 1-.708.706L10 7.188l-5.146 5.165a.5.5 0 0 1-.707.001Z"/></symbol><symbol id="dx-dropdown-up" viewBox="0 0 16 16"><path fill-rule="evenodd" clip-rule="evenodd" d="m3 10 5-5 5 5H3Z"/></symbol><symbol id="dx-error-circle-fluent" viewBox="0 0 20 20"><path d="M10 2a8 8 0 1 1 0 16 8 8 0 0 1 0-16Zm0 1a7 7 0 1 0 0 14 7 7 0 0 0 0-14Zm0 9.5a.75.75 0 1 1 0 1.5.75.75 0 0 1 0-1.5ZM10 6a.5.5 0 0 1 .492.41l.008.09V11a.5.5 0 0 1-.992.09L9.5 11V6.5A.5.5 0 0 1 10 6Z"/></symbol><symbol id="dx-error-circle" viewBox="0 0 16 16"><path fill-rule="evenodd" clip-rule="evenodd" d="M8 16A8 8 0 1 1 8 0a8 8 0 0 1 0 16ZM9 2H7v8h2V2Zm0 10H7v2h2v-2Z"/></symbol><symbol id="dx-funnel-filled-fluent" viewBox="0 0 20 20"><path d="M15 3H5c-.552 0-1 .468-1 1.046v2.615c0 .33.148.64.4.837l3.2 2.51c.252.198.4.508.4.838v4.06c0 .397.214.759.553.936l2 1.046c.665.348 1.447-.158 1.447-.935v-5.107c0-.33.148-.64.4-.837l3.2-2.51c.252-.198.4-.508.4-.838V4.046C16 3.468 15.552 3 15 3Z"/></symbol><symbol id="dx-funnel-filled" viewBox="0 0 16 16"><path fill-rule="evenodd" clip-rule="evenodd" d="M13 1a1 1 0 0 1 1 1v3l-3.75 3v7l-4.5-1.5V8L2 5V2a1 1 0 0 1 1-1h10Z"/></symbol><symbol id="dx-funnel-fluent" viewBox="0 0 20 20"><path fill-rule="evenodd" clip-rule="evenodd" d="m12.4 10.009-.6-.837 3.2-2.51V4.045H5v2.615l3.2 2.51c.504.396.8 1.016.8 1.675v4.06l2 1.047v-5.107c0-.659.296-1.279.8-1.674l.6.837Zm3.2-2.51-3.2 2.51c-.252.197-.4.507-.4.837v5.107c0 .777-.782 1.283-1.447.935l-2-1.046A1.052 1.052 0 0 1 8 14.906v-4.06c0-.33-.148-.64-.4-.837l-3.2-2.51A1.063 1.063 0 0 1 4 6.66V4.046C4 3.468 4.448 3 5 3h10c.552 0 1 .468 1 1.046v2.615c0 .33-.148.64-.4.837Z"/></symbol><symbol id="dx-funnel" viewBox="0 0 16 16"><path fill-rule="evenodd" clip-rule="evenodd" d="M13 1a1 1 0 0 1 1 1v3l-3.75 3v7l-4.5-1.5V8L2 5V2a1 1 0 0 1 1-1h10ZM3.5 4l3.75 3v5.5l1.5.5V7l3.75-3V2.5h-9V4Z"/></symbol><symbol id="dx-hamburger-fluent" viewBox="0 0 21 20"><g id="20/navigation"><path id="Vector" d="M2.5 4.75A.75.75 0 0 1 3.25 4h14.5a.75.75 0 0 1 0 1.5H3.25a.75.75 0 0 1-.75-.75Zm0 5A.75.75 0 0 1 3.25 9h14.5a.75.75 0 0 1 0 1.5H3.25a.75.75 0 0 1-.75-.75ZM3.25 14a.75.75 0 0 0 0 1.5h14.5a.75.75 0 0 0 0-1.5H3.25Z"/></g></symbol><symbol id="dx-hamburger" viewBox="0 0 16 16"><path d="M16 3H0v2h16V3Z"/><path d="M16 7H0v2h16V7Z"/><path d="M0 11h16v2H0v-2Z"/></symbol><symbol id="dx-he-align-center-fluent" viewBox="0 0 20 20"><path d="M4 4.5a.5.5 0 0 1 .5-.5h11a.5.5 0 0 1 0 1h-11a.5.5 0 0 1-.5-.5Zm-2 5a.5.5 0 0 1 .5-.5h15a.5.5 0 0 1 0 1h-15a.5.5 0 0 1-.5-.5ZM6.5 14a.5.5 0 0 0 0 1h7a.5.5 0 0 0 0-1h-7Z"/></symbol><symbol id="dx-he-align-center" viewBox="0 0 16 16"><g clip-path="url(#clip0_1133_23457)"><path d="M0 0h16v2H0V0Zm3 3.5h10v2H3v-2ZM0 7h16v2H0V7Zm3 3.5h10v2H3v-2ZM0 14h16v2H0v-2Z"/></g><defs><clipPath id="clip0_1133_23457"><rect width="16" height="16"/></clipPath></defs></symbol><symbol id="dx-he-align-justify-fluent" viewBox="0 0 20 20"><path d="M2 4.5a.5.5 0 0 1 .5-.5h15a.5.5 0 0 1 0 1h-15a.5.5 0 0 1-.5-.5Zm0 5a.5.5 0 0 1 .5-.5h15a.5.5 0 0 1 0 1h-15a.5.5 0 0 1-.5-.5Zm.5 4.5a.5.5 0 0 0 0 1h15a.5.5 0 0 0 0-1h-15Z"/></symbol><symbol id="dx-he-align-justify" viewBox="0 0 16 16"><g clip-path="url(#clip0_1133_23525)"><path d="M0 0h16v2H0V0Zm0 3.5h16v2H0v-2ZM0 7h16v2H0V7Zm0 3.5h16v2H0v-2ZM0 14h16v2H0v-2Z"/></g><defs><clipPath id="clip0_1133_23525"><rect width="16" height="16"/></clipPath></defs></symbol><symbol id="dx-he-align-left-fluent" viewBox="0 0 20 20"><path d="M2 4.5a.5.5 0 0 1 .5-.5h11a.5.5 0 0 1 0 1h-11a.5.5 0 0 1-.5-.5Zm0 5a.5.5 0 0 1 .5-.5h15a.5.5 0 0 1 0 1h-15a.5.5 0 0 1-.5-.5Zm.5 4.5a.5.5 0 0 0 0 1h9a.5.5 0 0 0 0-1h-9Z"/></symbol><symbol id="dx-he-align-left" viewBox="0 0 16 16"><g clip-path="url(#clip0_1133_23462)"><path d="M0 0h16v2H0V0Zm0 3.5h10v2H0v-2ZM0 7h16v2H0V7Zm0 3.5h10v2H0v-2ZM0 14h16v2H0v-2Z"/></g><defs><clipPath id="clip0_1133_23462"><rect width="16" height="16"/></clipPath></defs></symbol><symbol id="dx-he-align-right-fluent" viewBox="0 0 20 20"><path d="M6 4.5a.5.5 0 0 1 .5-.5h11a.5.5 0 0 1 0 1h-11a.5.5 0 0 1-.5-.5Zm-4 5a.5.5 0 0 1 .5-.5h15a.5.5 0 0 1 0 1h-15a.5.5 0 0 1-.5-.5ZM9.5 14a.5.5 0 0 0 0 1h8a.5.5 0 0 0 0-1h-8Z"/></symbol><symbol id="dx-he-align-right" viewBox="0 0 16 16"><g clip-path="url(#clip0_1133_23447)"><path d="M0 0h16v2H0V0Zm6 3.5h10v2H6v-2ZM0 7h16v2H0V7Zm6 3.5h10v2H6v-2ZM0 14h16v2H0v-2Z"/></g><defs><clipPath id="clip0_1133_23447"><rect width="16" height="16"/></clipPath></defs></symbol><symbol id="dx-he-blockqoute-fluent" viewBox="0 0 20 20"><path d="M7.826 8.62a8.802 8.802 0 0 1-.952 2.764c-.649 1.18-1.476 2.011-2.228 2.762a.5.5 0 0 0 .708.708l.011-.012c.747-.747 1.664-1.664 2.386-2.976C8.48 10.538 9 8.83 9 6.5a2.5 2.5 0 1 0-1.174 2.12ZM8 6.5a1.5 1.5 0 1 1-3 0 1.5 1.5 0 0 1 3 0Zm6.826 2.12a8.8 8.8 0 0 1-.952 2.764c-.649 1.18-1.476 2.011-2.228 2.762a.5.5 0 0 0 .708.708l.012-.012c.746-.747 1.663-1.664 2.385-2.976C15.48 10.538 16 8.83 16 6.5a2.5 2.5 0 1 0-1.174 2.12ZM13.5 8a1.5 1.5 0 1 1 0-3 1.5 1.5 0 0 1 0 3Z"/></symbol><symbol id="dx-he-blockqoute" viewBox="0 0 16 16"><path d="M4.4 3c1.325 0 2.4 1.12 2.4 2.5 0 2.5-3 7.5-3 7.5H2s1.8-3.125 2.4-5C3.075 8 2 6.88 2 5.5S3.075 3 4.4 3Z"/><path d="M11.6 3C12.925 3 14 4.12 14 5.5 14 8 11 13 11 13H9.2s1.8-3.125 2.4-5c-1.325 0-2.4-1.12-2.4-2.5S10.275 3 11.6 3Z"/></symbol><symbol id="dx-he-bold-fluent" viewBox="0 0 20 20"><path d="M5.5 4.25C5.5 3.56 6.06 3 6.75 3h3.501c2.403 0 3.999 1.988 3.999 4 0 .872-.3 1.738-.834 2.44.904.703 1.581 1.802 1.581 3.31 0 2.863-2.437 4.245-4.244 4.245H6.75c-.69 0-1.25-.56-1.25-1.25V4.25ZM8 11v3.495h2.753c.811 0 1.744-.618 1.744-1.745 0-1.129-.937-1.75-1.744-1.75H8Zm0-2.5h2.248A1.5 1.5 0 0 0 11.75 7c0-.78-.62-1.5-1.499-1.5H8v3Z"/></symbol><symbol id="dx-he-bold" viewBox="0 0 16 16"><path d="M12.2 7.76c1.263-.766 2.149-2.023 2.149-3.189C14.349 1.99 12.069 0 9.139 0H1v16h9.168C12.89 16 15 14.057 15 11.669c0-1.738-1.12-3.223-2.8-3.909ZM4.907 2.857h3.907c1.08 0 1.953.766 1.953 1.714 0 .949-.872 1.715-1.953 1.715H4.907V2.857Zm4.558 10.286H4.907V9.714h4.558c1.081 0 1.954.766 1.954 1.715 0 .948-.873 1.714-1.954 1.714Z"/></symbol><symbol id="dx-he-clear-formatting-fluent" viewBox="0 0 20 20"><path d="M11.197 2.44a1.5 1.5 0 0 1 2.121 0l4.243 4.242a1.5 1.5 0 0 1 0 2.121L9.364 17H14.5a.5.5 0 1 1 0 1H7.82a1.496 1.496 0 0 1-1.14-.437L2.437 13.32a1.5 1.5 0 0 1 0-2.121l8.76-8.76Zm1.414.706a.5.5 0 0 0-.707 0L5.538 9.512l4.95 4.95 6.366-6.366a.5.5 0 0 0 0-.707L12.61 3.146ZM9.781 15.17l-4.95-4.95-1.687 1.687a.5.5 0 0 0 0 .707l4.243 4.243a.5.5 0 0 0 .707 0l1.687-1.687Z"/></symbol><symbol id="dx-he-clear-formatting" viewBox="0 0 16 16"><path d="M14.5 7 12 10l-1.625 1.857-5.949-5.086L6 5l2.5-3c.689-.83 1.68-1.196 2.5-.5l3.5 3c1 1 .5 2 0 2.5Z"/><path d="m3.762 7.518 5.954 5.092L8.5 14c-1.5 1.5-3.5 1.5-5 0L2 12.5c-.754-.757-1.11-1.883 0-3l1.762-1.982Z"/></symbol><symbol id="dx-he-close-lock-fluent" viewBox="0 0 20 20"><path d="M10 13a1 1 0 1 0 0-2 1 1 0 0 0 0 2ZM6 6h1V5a3 3 0 0 1 6 0v1h1a3 3 0 0 1 3 3v6a3 3 0 0 1-3 3H6a3 3 0 0 1-3-3V9a3 3 0 0 1 3-3Zm4-3a2 2 0 0 0-2 2v1h4V5a2 2 0 0 0-2-2Zm6 6a2 2 0 0 0-2-2H6a2 2 0 0 0-2 2v6a2 2 0 0 0 2 2h8a2 2 0 0 0 2-2V9Z"/></symbol><symbol id="dx-he-close-lock" viewBox="0 0 16 16"><path fill-rule="evenodd" clip-rule="evenodd" d="M14 8c0-2-2-2-2-2s0-4-4-4-4 4-4 4-2 0-2 2v4c0 2 2 2 2 2h8s2 0 2-2V8ZM8 4c2 0 2 2 2 2H6s0-2 2-2Z"/></symbol><symbol id="dx-he-code-block-fluent" viewBox="0 0 20 20"><path d="M12.967 3.68a.5.5 0 0 0-.934-.36l-5 13a.5.5 0 1 0 .934.36l5-13ZM5.825 6.12a.5.5 0 0 1 .055.705L3.159 10l2.72 3.175a.5.5 0 1 1-.759.65l-3-3.5a.5.5 0 0 1 0-.65l3-3.5a.5.5 0 0 1 .705-.055Zm8.35 8.26a.5.5 0 0 1-.055-.705l2.722-3.175-2.722-3.175a.5.5 0 1 1 .76-.65l3 3.5a.5.5 0 0 1 0 .65l-3 3.5a.5.5 0 0 1-.705.055Z"/></symbol><symbol id="dx-he-code-block" viewBox="0 0 16 16"><path d="M10 2H8.5l-3 12H7l3-12Z"/><path d="m3.5 4 1 1-2.65 3 2.65 3-1 1L0 8l3.5-4Z"/><path d="m12.5 4-1 1 2.7 3-2.7 3 1 1L16 8l-3.5-4Z"/></symbol><symbol id="dx-he-delete-table-columns-fluent" viewBox="0 0 20 20"><path fill-rule="evenodd" clip-rule="evenodd" d="M12 4H8v3h4V4Zm-4 8V8h4v1.6a5.465 5.465 0 0 1 1-.393V4h1.5A1.5 1.5 0 0 1 16 5.5v3.707c.349.099.683.23 1 .393V5.5A2.5 2.5 0 0 0 14.5 3h-9A2.5 2.5 0 0 0 3 5.5v9A2.5 2.5 0 0 0 5.5 17h4.1a5.465 5.465 0 0 1-.393-1H8v-3h1.207c.099-.349.23-.683.393-1H8ZM5.5 4H7v12H5.5A1.5 1.5 0 0 1 4 14.5v-9A1.5 1.5 0 0 1 5.5 4ZM19 14.5a4.5 4.5 0 1 1-9 0 4.5 4.5 0 0 1 9 0Zm-3.793 0 1.147-1.146a.5.5 0 0 0-.708-.708L14.5 13.793l-1.146-1.147a.5.5 0 0 0-.708.708l1.147 1.146-1.147 1.146a.5.5 0 0 0 .708.708l1.146-1.147 1.146 1.147a.5.5 0 0 0 .708-.708L15.207 14.5Z"/></symbol><symbol id="dx-he-delete-table-columns" viewBox="0 0 16 16"><g clip-path="url(#clip0_1488_6117)"><path d="M13 5h-3v3h3V5Z"/><path d="M13 0h-3v3h3V0Z"/><path d="M3 10H0v3h3v-3Z"/><path d="M3 5H0v3h3V5Z"/><path d="M3 0H0v3h3V0Z"/><path d="M8 0H5v13h3V0Z"/><path d="M14.886 16 16 14.886 14.114 13 16 11.114 14.886 10 13 11.886 11.114 10 10 11.114 11.886 13 10 14.886 11.114 16 13 14.114 14.886 16Z"/></g><defs><clipPath id="clip0_1488_6117"><rect width="16" height="16"/></clipPath></defs></symbol><symbol id="dx-he-delete-table-fluent" viewBox="0 0 20 20"><path d="M17 5.5A2.5 2.5 0 0 0 14.5 3h-9A2.5 2.5 0 0 0 3 5.5v9A2.5 2.5 0 0 0 5.5 17h4.1a5.465 5.465 0 0 1-.393-1H8v-3h1.207c.099-.349.23-.683.393-1H8V8h4v1.6a5.465 5.465 0 0 1 1-.393V8h3v1.207c.349.099.683.23 1 .393V5.5Zm-13 9V13h3v3H5.5l-.144-.007A1.5 1.5 0 0 1 4 14.5ZM12 4v3H8V4h4Zm1 0h1.5l.145.007A1.5 1.5 0 0 1 16 5.5V7h-3V4ZM7 4v3H4V5.5l.007-.144A1.5 1.5 0 0 1 5.5 4H7Zm0 4v4H4V8h3Zm12 6.5a4.5 4.5 0 1 1-9 0 4.5 4.5 0 0 1 9 0Zm-3.793 0 1.147-1.146a.5.5 0 0 0-.708-.708L14.5 13.793l-1.146-1.147a.5.5 0 0 0-.708.708l1.147 1.146-1.147 1.146a.5.5 0 0 0 .708.708l1.146-1.147 1.146 1.147a.5.5 0 0 0 .708-.708L15.207 14.5Z"/></symbol><symbol id="dx-he-delete-table-rows-fluent" viewBox="0 0 20 20"><path fill-rule="evenodd" clip-rule="evenodd" d="M14.5 4h-9A1.5 1.5 0 0 0 4 5.5V7h12V5.5A1.5 1.5 0 0 0 14.5 4ZM4 12V8h3v4H4Zm0 1v1.5A1.5 1.5 0 0 0 5.5 16h3.707c.099.349.23.683.393 1H5.5A2.5 2.5 0 0 1 3 14.5v-9A2.5 2.5 0 0 1 5.5 3h9A2.5 2.5 0 0 1 17 5.5v4.1a5.465 5.465 0 0 0-1-.393V8h-3v1.207c-.349.099-.683.23-1 .393V8H8v4h1.6a5.465 5.465 0 0 0-.393 1H4Zm15 1.5a4.5 4.5 0 1 1-9 0 4.5 4.5 0 0 1 9 0Zm-3.793 0 1.147-1.146a.5.5 0 0 0-.708-.708L14.5 13.793l-1.146-1.147a.5.5 0 0 0-.708.708l1.147 1.146-1.147 1.146a.5.5 0 0 0 .708.708l1.146-1.147 1.146 1.147a.5.5 0 0 0 .708-.708L15.207 14.5Z"/></symbol><symbol id="dx-he-delete-table-rows" viewBox="0 0 16 16"><g clip-path="url(#clip0_1488_6113)"><path d="M13 0h-3v3h3V0Z"/><path d="M8 10H5v3h3v-3Z"/><path d="M8 0H5v3h3V0Z"/><path d="M3 10H0v3h3v-3Z"/><path d="M3 0H0v3h3V0Z"/><path d="M13 5H0v3h13V5Z"/><path d="M14.886 16 16 14.886 14.114 13 16 11.114 14.886 10 13 11.886 11.114 10 10 11.114 11.886 13 10 14.886 11.114 16 13 14.114 14.886 16Z"/></g><defs><clipPath id="clip0_1488_6113"><rect width="16" height="16"/></clipPath></defs></symbol><symbol id="dx-he-delete-table" viewBox="0 0 16 16"><g clip-path="url(#clip0_1488_6121)"><path d="M13 5h-3v3h3V5Z"/><path d="M13 0h-3v3h3V0Z"/><path d="M8 10H5v3h3v-3Z"/><path d="M8 5H5v3h3V5Z"/><path d="M8 0H5v3h3V0Z"/><path d="M3 10H0v3h3v-3Z"/><path d="M3 5H0v3h3V5Z"/><path d="M3 0H0v3h3V0Z"/><path d="M14.886 16 16 14.886 14.114 13 16 11.114 14.886 10 13 11.886 11.114 10 10 11.114 11.886 13 10 14.886 11.114 16 13 14.114 14.886 16Z"/></g><defs><clipPath id="clip0_1488_6121"><rect width="16" height="16"/></clipPath></defs></symbol><symbol id="dx-he-font-color-fluent" viewBox="0 0 20 20"><path d="M10 4a.5.5 0 0 1 .463.31l4.5 11a.5.5 0 1 1-.926.38L12.5 11.931V12h-5v-.069L5.963 15.69a.5.5 0 0 1-.926-.378l4.5-11A.5.5 0 0 1 10 4Zm-2.119 7h4.238L10 5.82 7.881 11Z"/></symbol><symbol id="dx-he-font-color" viewBox="0 0 16 16"><path d="M2 14h2.215l1.2-3.343h5.17l1.2 3.343H14L9.108 1H6.8L2 14Zm4.062-5.2 1.846-5.386H8L9.846 8.8H6.062Z"/></symbol><symbol id="dx-he-header-fluent" viewBox="0 0 20 20"><path d="M6.5 4a.5.5 0 0 1 .5.5V9h6V4.5a.5.5 0 0 1 1 0v11a.5.5 0 0 1-1 0V10H7v5.5a.5.5 0 0 1-1 0v-11a.5.5 0 0 1 .5-.5Z"/></symbol><symbol id="dx-he-header" viewBox="0 0 16 16"><path d="M2.5 0H5v7h6V0h2.5v16H11V9.5H5V16H2.5V0Z"/></symbol><symbol id="dx-he-highlight-fluent" viewBox="0 0 20 20"><path d="M3.5 2a.5.5 0 0 1 .5.5v4a.5.5 0 0 0 .5.5h11a.5.5 0 0 0 .5-.5v-4a.5.5 0 0 1 1 0v4a1.5 1.5 0 0 1-1 1.415V9a2 2 0 0 1-2 2v2.073a2 2 0 0 1-1.106 1.789l-6.17 3.085A.5.5 0 0 1 6 17.5V11a2 2 0 0 1-2-2V7.915A1.5 1.5 0 0 1 3 6.5v-4a.5.5 0 0 1 .5-.5ZM5 8v1a1 1 0 0 0 1 1h8a1 1 0 0 0 1-1V8H5Zm2 3v5.691l5.447-2.724a1 1 0 0 0 .553-.894V11H7Z"/></symbol><symbol id="dx-he-highlight" viewBox="0 0 16 16"><path d="m0 15 2.791-2.81a1.583 1.583 0 0 1 0-2.208L6.58 6.068l4.387 4.416-3.788 3.914c-.599.602-1.496.602-2.094 0L4.287 15H0ZM11.165 1.452a1.557 1.557 0 0 1 2.193 0l2.193 2.208a1.583 1.583 0 0 1 0 2.207L12.162 9.28 7.776 4.864l3.39-3.412Z"/></symbol><symbol id="dx-he-hyperlink-fluent" viewBox="0 0 20 20"><path d="M8.5 4.5A.5.5 0 0 0 8 4H6l-.22.006A4 4 0 0 0 6 12h2l.09-.008A.5.5 0 0 0 8 11H6l-.197-.006A3 3 0 0 1 6 5h2l.09-.008A.5.5 0 0 0 8.5 4.5ZM18 8a4 4 0 0 0-4-4h-2l-.09.008A.5.5 0 0 0 12 5h2l.197.006a3 3 0 0 1 2.44 4.425c.31.13.605.289.883.471C17.826 9.337 18 8.69 18 8Zm-4-.5H6l-.09.008A.5.5 0 0 0 6 8.5h8l.09-.008A.5.5 0 0 0 14 7.5Zm5 7a4.5 4.5 0 1 1-9 0 4.5 4.5 0 0 1 9 0Zm-4-2a.5.5 0 0 0-1 0V14h-1.5a.5.5 0 0 0 0 1H14v1.5a.5.5 0 0 0 1 0V15h1.5a.5.5 0 0 0 0-1H15v-1.5Z"/></symbol><symbol id="dx-he-hyperlink" viewBox="0 0 16 16"><path d="M4.444 3h2.667v1.846H4.444c-1.51 0-2.666 1.2-2.666 2.77 0 1.569 1.155 2.769 2.666 2.769h2.667v1.846H4.444C1.956 12.23 0 10.2 0 7.615 0 5.031 1.956 3 4.444 3Zm7.112 0C14.044 3 16 5.03 16 7.615h-1.778c0-1.569-1.155-2.769-2.666-2.769H8.889V3h2.667ZM5.333 6.692h5.334v1.846H5.333V6.692Zm6.223.923h1.777v2.77H16v1.846h-2.667V15h-1.777v-2.77H8.889v-1.845h2.667v-2.77Z"/></symbol><symbol id="dx-he-indent-decrease-fluent" viewBox="0 0 20 20"><path d="M6 4.5a.5.5 0 0 1 .5-.5h8a.5.5 0 1 1 0 1h-8a.5.5 0 0 1-.5-.5ZM3.56 7.732a.5.5 0 0 1 .708.707L3.208 9.5l1.06 1.06a.5.5 0 1 1-.707.708L2.146 9.854a.5.5 0 0 1 0-.708l1.415-1.414ZM6.5 9a.5.5 0 0 0 0 1h11a.5.5 0 1 0 0-1h-11ZM6 14.5a.5.5 0 0 1 .5-.5h6a.5.5 0 1 1 0 1h-6a.5.5 0 0 1-.5-.5Z"/></symbol><symbol id="dx-he-indent-decrease" viewBox="0 0 16 16"><g clip-path="url(#clip0_1488_6156)"><path d="M8 9h8V7H8m0-1.5h8v-2H8M0 0v2h16V0M0 16h16v-2H0m0-6 4 4V4m4 8.5h8v-2H8v2Z"/></g><defs><clipPath id="clip0_1488_6156"><rect width="16" height="16"/></clipPath></defs></symbol><symbol id="dx-he-indent-increase-fluent" viewBox="0 0 20 20"><path d="M6 4.5a.5.5 0 0 1 .5-.5h8a.5.5 0 0 1 0 1h-8a.5.5 0 0 1-.5-.5Zm0 5a.5.5 0 0 1 .5-.5h11a.5.5 0 0 1 0 1h-11a.5.5 0 0 1-.5-.5Zm.5 4.5a.5.5 0 0 0 0 1h6a.5.5 0 0 0 0-1h-6ZM2.854 7.732a.5.5 0 1 0-.708.707L3.207 9.5l-1.06 1.06a.5.5 0 1 0 .707.708l1.414-1.414a.5.5 0 0 0 0-.708L2.854 7.732Z"/></symbol><symbol id="dx-he-indent-increase" viewBox="0 0 16 16"><g clip-path="url(#clip0_1488_6159)"><path d="M8 7H0v2h8m0-5.5H0v2h8M0 0v2h16V0m0 14H0v2h16M12 4v8l4-4m-8 2.5H0v2h8v-2Z"/></g><defs><clipPath id="clip0_1488_6159"><rect width="16" height="16"/></clipPath></defs></symbol><symbol id="dx-he-insert-image-fluent" viewBox="0 0 20 20"><path d="M14 7.5a1.5 1.5 0 1 1-3 0 1.5 1.5 0 0 1 3 0Zm-1 0a.5.5 0 1 0-1 0 .5.5 0 0 0 1 0ZM3 6a3 3 0 0 1 3-3h8a3 3 0 0 1 3 3v8a3 3 0 0 1-3 3H6a3 3 0 0 1-3-3V6Zm3-2a2 2 0 0 0-2 2v8c0 .373.102.722.28 1.02l4.669-4.588a1.5 1.5 0 0 1 2.102 0l4.67 4.588A1.99 1.99 0 0 0 16 14V6a2 2 0 0 0-2-2H6Zm0 12h8c.37 0 .715-.1 1.012-.274l-4.662-4.58a.5.5 0 0 0-.7 0l-4.662 4.58A1.99 1.99 0 0 0 6 16Z"/></symbol><symbol id="dx-he-insert-image" viewBox="0 0 16 16"><path d="M12 5.5a1.5 1.5 0 1 1-3 0 1.5 1.5 0 0 1 3 0Z"/><path d="M5 7 3 9v3h7L5 7Z"/><path d="m10 9 3 3h-2l-2-2 1-1Z"/><path fill-rule="evenodd" clip-rule="evenodd" d="M0 3a2 2 0 0 1 2-2h12a2 2 0 0 1 2 2v10a2 2 0 0 1-2 2H2a2 2 0 0 1-2-2V3Zm2 0h12v10H2V3Z"/></symbol><symbol id="dx-he-insert-table-caption-fluent" viewBox="0 0 20 20"><path fill-rule="evenodd" clip-rule="evenodd" d="M4 8v4h3V8H4Zm0 6.5V13h3v3H5.5A1.5 1.5 0 0 1 4 14.5Zm8 1.5H8v-3h4v3Zm2.5 0H13v-3h3v1.5a1.5 1.5 0 0 1-1.5 1.5ZM13 12h3V8h-3v4Zm4-6.5A2.5 2.5 0 0 0 14.5 3h-9A2.5 2.5 0 0 0 3 5.5v9A2.5 2.5 0 0 0 5.5 17h9a2.5 2.5 0 0 0 2.5-2.5v-9ZM8 12h4V8H8v4Z"/></symbol><symbol id="dx-he-insert-table-caption" viewBox="0 0 16 16"><path d="M6.75 14.25v-2.5h2.5v2.5h-2.5Zm0-5v-2.5h2.5v2.5h-2.5Zm-5 5v-2.5h2.5v2.5h-2.5Zm0-5v-2.5h2.5v2.5h-2.5Zm10 5v-2.5h2.5v2.5h-2.5Zm0-5v-2.5h2.5v2.5h-2.5Z" stroke="black" stroke-width="0.5"/><path d="M14.5 2.5a1 1 0 0 0-1-1h-11a1 1 0 0 0-1 1v2h13v-2Z"/></symbol><symbol id="dx-he-insert-table-columns-to-the-left-fluent" viewBox="0 0 20 20"><path fill-rule="evenodd" clip-rule="evenodd" d="M12 4H8v3h4V4ZM7 8h5v4H7v4H5.5A1.5 1.5 0 0 1 4 14.5v-9A1.5 1.5 0 0 1 5.5 4H7v4Zm5 5H8v3h4v-3Zm2.5 3H13V4h1.5A1.5 1.5 0 0 1 16 5.5v9a1.5 1.5 0 0 1-1.5 1.5Zm-9-13A2.5 2.5 0 0 0 3 5.5v9A2.5 2.5 0 0 0 5.5 17h9a2.5 2.5 0 0 0 2.5-2.5v-9A2.5 2.5 0 0 0 14.5 3h-9Zm.646 5.146-1.5 1.5a.5.5 0 0 0 0 .708l1.5 1.5a.5.5 0 1 0 .708-.707l-.647-.647H9a.5.5 0 0 0 0-1H6.207l.647-.646a.5.5 0 0 0-.708-.708Z"/></symbol><symbol id="dx-he-insert-table-columns-to-the-left" viewBox="0 0 16 16"><path d="M16 1.5h-3v3h3v-3Z"/><path d="M6 11.5H3v3h3v-3Z"/><path d="M6 1.5H3v3h3v-3Z"/><path d="M16 11.5h-3v3h3v-3Z"/><path d="M16 6.5h-3v3h3v-3Z"/><path d="M8 1.5h3v13H8v-13Z"/><path d="M4.333 7.167H6v1.666H4.333V10.5L1 8l3.333-2.5v1.667Z"/></symbol><symbol id="dx-he-insert-table-columns-to-the-right-fluent" viewBox="0 0 20 20"><path fill-rule="evenodd" clip-rule="evenodd" d="M12 4H8v3h4V4ZM7 16H5.5A1.5 1.5 0 0 1 4 14.5v-9A1.5 1.5 0 0 1 5.5 4H7v12Zm1-8v4h5v4h1.5a1.5 1.5 0 0 0 1.5-1.5v-9A1.5 1.5 0 0 0 14.5 4H13v4H8ZM5.5 3A2.5 2.5 0 0 0 3 5.5v9A2.5 2.5 0 0 0 5.5 17h9a2.5 2.5 0 0 0 2.5-2.5v-9A2.5 2.5 0 0 0 14.5 3h-9Zm8.354 5.146 1.5 1.5a.5.5 0 0 1 0 .708l-1.5 1.5a.5.5 0 0 1-.708-.707l.647-.647H11a.5.5 0 0 1 0-1h2.793l-.647-.646a.5.5 0 0 1 .708-.708ZM12 13H8v3h4v-3Z"/></symbol><symbol id="dx-he-insert-table-columns-to-the-right" viewBox="0 0 16 16"><path d="M13 1.5h-3v3h3v-3Z"/><path d="M3 11.5H0v3h3v-3Z"/><path d="M3 1.5H0v3h3v-3Z"/><path d="M13 11.5h-3v3h3v-3Z"/><path d="M3 1.5H0v3h3v-3Z"/><path d="M3 6.5H0v3h3v-3Z"/><path d="M8 1.5H5v13h3v-13Z"/><path d="M10 8.833h1.667V10.5L15 8l-3.333-2.5v1.667H10v1.666Z"/></symbol><symbol id="dx-he-insert-table-fluent" viewBox="0 0 20 20"><path d="M17 5.5A2.5 2.5 0 0 0 14.5 3h-9A2.5 2.5 0 0 0 3 5.5v9A2.5 2.5 0 0 0 5.5 17h9a2.5 2.5 0 0 0 2.5-2.5v-9Zm-13 9V13h3v3H5.5l-.144-.007A1.5 1.5 0 0 1 4 14.5Zm8-1.5v3H8v-3h4Zm2.5 3H13v-3h3v1.5l-.007.145A1.5 1.5 0 0 1 14.5 16ZM12 8v4H8V8h4Zm1 0h3v4h-3V8Zm-1-4v3H8V4h4Zm1 0h1.5l.145.007A1.5 1.5 0 0 1 16 5.5V7h-3V4ZM7 4v3H4V5.5l.007-.144A1.5 1.5 0 0 1 5.5 4H7Zm0 4v4H4V8h3Z"/></symbol><symbol id="dx-he-insert-table-rows-above-fluent" viewBox="0 0 20 20"><path fill-rule="evenodd" clip-rule="evenodd" d="M14.5 4h-9A1.5 1.5 0 0 0 4 5.5V7h4v5h4V7h4V5.5A1.5 1.5 0 0 0 14.5 4ZM4 12V8h3v4H4Zm0 1v1.5A1.5 1.5 0 0 0 5.5 16h9a1.5 1.5 0 0 0 1.5-1.5V13H4Zm13 1.5a2.5 2.5 0 0 1-2.5 2.5h-9A2.5 2.5 0 0 1 3 14.5v-9A2.5 2.5 0 0 1 5.5 3h9A2.5 2.5 0 0 1 17 5.5v9Zm-5.146-8.354-1.5-1.5a.5.5 0 0 0-.707 0l-1.5 1.5a.5.5 0 1 0 .707.708l.646-.647V9a.5.5 0 0 0 1 0V6.207l.647.647a.5.5 0 1 0 .707-.708ZM16 12h-3V8h3v4Z"/></symbol><symbol id="dx-he-insert-table-rows-above" viewBox="0 0 16 16"><path d="M14.5 3h-3v3h3V3Z"/><path d="M9.5 13h-3v3h3v-3Z"/><path d="M4.5 13h-3v3h3v-3Z"/><path d="M4.5 3h-3v3h3V3Z"/><path d="M14.5 13h-3v3h3v-3Z"/><path d="M8.833 6V4.333H10.5L8 1 5.5 4.333h1.667V6h1.666Z"/><path d="M1.5 11V8h13v3h-13Z"/></symbol><symbol id="dx-he-insert-table-rows-below-fluent" viewBox="0 0 20 20"><path fill-rule="evenodd" clip-rule="evenodd" d="M14.5 4h-9A1.5 1.5 0 0 0 4 5.5V7h12V5.5A1.5 1.5 0 0 0 14.5 4ZM4 12V8h3v4H4Zm0 1v1.5A1.5 1.5 0 0 0 5.5 16h9a1.5 1.5 0 0 0 1.5-1.5V13h-4V8H8v5H4Zm13 1.5a2.5 2.5 0 0 1-2.5 2.5h-9A2.5 2.5 0 0 1 3 14.5v-9A2.5 2.5 0 0 1 5.5 3h9A2.5 2.5 0 0 1 17 5.5v9ZM13 12V8h3v4h-3Zm-1.146 1.854-1.5 1.5a.5.5 0 0 1-.707 0l-1.5-1.5a.5.5 0 0 1 .707-.708l.646.647V11a.5.5 0 0 1 1 0v2.793l.647-.647a.5.5 0 0 1 .707.708Z"/></symbol><symbol id="dx-he-insert-table-rows-below" viewBox="0 0 16 16"><g clip-path="url(#clip0_1488_6132)"><path d="M14.5 0h-3v3h3V0Z"/><path d="M9.5 0h-3v3h3V0Z"/><path d="M4.5 10h-3v3h3v-3Z"/><path d="M4.5 0h-3v3h3V0Z"/><path d="M14.5 10h-3v3h3v-3Z"/><path d="M1.5 5h13v3h-13V5Z"/><path d="M7.167 11.667V10h1.666v1.667H10.5L8 15l-2.5-3.333h1.667Z"/></g><defs><clipPath id="clip0_1488_6132"><rect width="16" height="16"/></clipPath></defs></symbol><symbol id="dx-he-insert-table" viewBox="0 0 16 16"><path d="M11.5 1.5h3v3h-3v-3Z"/><path d="M6.5 11.5h3v3h-3v-3Z"/><path d="M9.5 1.5h-3v3h3v-3Z"/><path d="M1.5 11.5h3v3h-3v-3Z"/><path d="M4.5 1.5h-3v3h3v-3Z"/><path d="M11.5 11.5h3v3h-3v-3Z"/><path d="M4.5 6.5h-3v3h3v-3Z"/><path d="M9.5 6.5h-3v3h3v-3Z"/><path d="M11.5 6.5h3v3h-3v-3Z"/></symbol><symbol id="dx-he-italic-fluent" viewBox="0 0 20 20"><path d="M16 3a.5.5 0 0 1 0 1h-3.157L8.227 16H11.5a.5.5 0 0 1 0 1H4a.5.5 0 0 1 0-1h3.156l4.615-12H8.5a.5.5 0 0 1 0-1H16Z"/></symbol><symbol id="dx-he-italic" viewBox="0 0 16 16"><path d="M6 1v2h2.2L4.8 13H2v2h8v-2H7.8l3.4-10H14V1H6Z"/></symbol><symbol id="dx-he-list-bullets-fluent" viewBox="0 0 20 20"><path d="M3 5.5a1 1 0 1 0 0-2 1 1 0 0 0 0 2Zm3-1a.5.5 0 0 1 .5-.5h11a.5.5 0 0 1 0 1h-11a.5.5 0 0 1-.5-.5Zm0 5a.5.5 0 0 1 .5-.5h11a.5.5 0 0 1 0 1h-11a.5.5 0 0 1-.5-.5Zm.5 4.5a.5.5 0 0 0 0 1h11a.5.5 0 0 0 0-1h-11Zm-2.5.5a1 1 0 1 1-2 0 1 1 0 0 1 2 0Zm-1-4a1 1 0 1 0 0-2 1 1 0 0 0 0 2Z"/></symbol><symbol id="dx-he-list-bullets" viewBox="0 0 16 16"><g clip-path="url(#clip0_1488_6187)"><path fill-rule="evenodd" clip-rule="evenodd" d="M6 15v-2h10v2H6Zm0-8h10v2H6V7Zm0-6h10v2H6V1ZM2 16c-1.1 0-2-.9-2-2s.9-2 2-2 2 .9 2 2-.9 2-2 2Zm0-6c-1.1 0-2-.9-2-2s.9-2 2-2 2 .9 2 2-.9 2-2 2Zm0-6C.9 4 0 3.1 0 2s.9-2 2-2 2 .9 2 2-.9 2-2 2Z"/></g><defs><clipPath id="clip0_1488_6187"><rect width="16" height="16"/></clipPath></defs></symbol><symbol id="dx-he-list-numbers-fluent" viewBox="0 0 20 20"><path d="M5 1.5a.5.5 0 0 0-.385-.487.507.507 0 0 0-.564.266 3.505 3.505 0 0 1-.317.471 2.957 2.957 0 0 1-.958.803.5.5 0 1 0 .448.894c.3-.15.558-.336.776-.529V5.5a.5.5 0 0 0 1 0v-4ZM2.646 7.646a.5.5 0 0 0 .704.71l.007-.005a1.436 1.436 0 0 1 .237-.163C3.764 8.093 4.01 8 4.312 8c.227.004.41.065.524.149.096.07.163.17.163.351 0 .202-.07.32-.21.436-.152.126-.349.224-.619.357l-.145.072c-.313.157-.702.364-1.005.697-.322.354-.521.819-.521 1.438a.5.5 0 0 0 .5.5h2.5a.5.5 0 0 0 0-1H3.59a.93.93 0 0 1 .17-.265c.166-.183.402-.32.714-.475l.12-.06c.263-.128.585-.286.835-.496C5.758 9.431 6 9.048 6 8.5c0-.504-.223-.9-.568-1.155C5.106 7.103 4.7 7.006 4.326 7h-.009a2.498 2.498 0 0 0-1.655.632l-.01.008-.003.004-.001.001-.002.001Zm.016-.014-.016.014s.101-.09.016-.014ZM4.25 15a.5.5 0 1 0 0 1c.343 0 .532.097.628.183a.374.374 0 0 1 .129.298c-.008.194-.186.519-.757.519-.412 0-.626-.102-.723-.166a.416.416 0 0 1-.088-.076l-.004-.005a.5.5 0 0 0-.882.47v.002l.001.001.002.004.003.006.01.016a1.065 1.065 0 0 0 .103.146c.066.08.164.177.3.268.28.186.69.334 1.278.334 1.03 0 1.726-.675 1.756-1.481a1.371 1.371 0 0 0-.396-1.02c.278-.282.41-.65.396-1.018C5.976 13.675 5.279 13 4.25 13c-.587 0-.999.148-1.277.334a1.404 1.404 0 0 0-.38.374.803.803 0 0 0-.025.04l-.009.016-.003.006-.002.003v.002l-.001.001a.5.5 0 0 0 .882.47l.004-.004a.417.417 0 0 1 .088-.076c.097-.064.31-.166.723-.166.57 0 .75.325.757.519a.374.374 0 0 1-.13.298c-.095.086-.284.183-.627.183Zm-.815-.753-.002.003v-.001l.005-.008.004-.008.003-.004.001-.003.001-.002a.511.511 0 0 1-.012.023ZM8.5 4a.5.5 0 1 0 0 1h8a.5.5 0 0 0 0-1h-8Zm0 5a.5.5 0 1 0 0 1h8a.5.5 0 0 0 0-1h-8ZM8 14.5a.5.5 0 0 1 .5-.5h8a.5.5 0 1 1 0 1h-8a.5.5 0 0 1-.5-.5Z"/></symbol><symbol id="dx-he-list-numbers" viewBox="0 0 16 16"><g clip-path="url(#clip0_1488_6184)"><path fill-rule="evenodd" clip-rule="evenodd" d="M5 15v-2h11v2H5Zm0-8h11v2H5V7Zm0-6h11v2H5V1ZM1 4V1H0V0h2v4H1Zm-1 9v-1h3v4H0v-1h2v-.5H1v-1h1V13H0Zm2.3-7c.4 0 .7.3.7.8 0 .2-.1.3-.2.5L1.1 9H3v1H0v-.9L2 7H0V6h2.3Z"/></g><defs><clipPath id="clip0_1488_6184"><rect width="16" height="16"/></clipPath></defs></symbol><symbol id="dx-he-open-lock-fluent" viewBox="0 0 20 20"><path d="M10 13a1 1 0 1 0 0-2 1 1 0 0 0 0 2Zm5-11a2 2 0 0 0-2 2v2h1a3 3 0 0 1 3 3v6a3 3 0 0 1-3 3H6a3 3 0 0 1-3-3V9a3 3 0 0 1 3-3h6V4a3 3 0 1 1 6 0v.5a.5.5 0 0 1-1 0V4a2 2 0 0 0-2-2Zm-1 5H6a2 2 0 0 0-2 2v6a2 2 0 0 0 2 2h8a2 2 0 0 0 2-2V9a2 2 0 0 0-2-2Z"/></symbol><symbol id="dx-he-open-lock" viewBox="0 0 16 16"><path fill-rule="evenodd" clip-rule="evenodd" d="M14 8c0-2-2-2-2-2H4S2 6 2 8v4c0 2 2 2 2 2h8s2 0 2-2V8Z"/><path fill-rule="evenodd" clip-rule="evenodd" d="M8 0C4 0 4 4 4 4v2h2V4s0-2 2-2 2 2 2 2h2s0-4-4-4Z"/></symbol><symbol id="dx-he-redo-fluent" viewBox="0 0 20 20"><path d="M15.003 2.5a.5.5 0 0 1 1 0v4.9a.6.6 0 0 1-.6.6h-4.9a.5.5 0 0 1 0-1h3.594l-3.473-3.019a4 4 0 1 0-5.248 6.038l8.172 7.104a.5.5 0 1 1-.656.754L4.72 10.774a5 5 0 1 1 6.56-7.547l3.723 3.236V2.5Z"/></symbol><symbol id="dx-he-redo" viewBox="0 0 16 16"><path d="M0 12a7.505 7.505 0 0 1 7.491-7c2.073 0 3.95.84 5.309 2.197L16 4v8H7.992l3.392-3.39A5.491 5.491 0 0 0 7.491 7a5.504 5.504 0 0 0-5.483 5H0Z"/></symbol><symbol id="dx-he-strikeout-fluent" viewBox="0 0 20 20"><path d="M6.528 4.026C7.428 3.403 8.654 3 10 3c2.688 0 4.326 1.434 4.9 2.2a.5.5 0 0 1-.8.6C13.674 5.232 12.312 4 10 4c-1.153 0-2.178.347-2.903.849C6.36 5.359 6 5.976 6 6.5c0 .909.432 1.484 1.167 1.933.362.22.784.403 1.248.567H6.23C5.498 8.43 5 7.637 5 6.5c0-.976.64-1.86 1.528-2.474ZM16.5 10a.5.5 0 0 1 0 1h-2.73c.732.57 1.23 1.363 1.23 2.5 0 1.228-.721 2.12-1.677 2.681-.945.556-2.163.819-3.323.819-1.126 0-2.078-.128-2.893-.478-.827-.356-1.477-.925-2.023-1.745a.5.5 0 0 1 .832-.554c.454.68.96 1.111 1.586 1.38C8.141 15.878 8.94 16 10 16c1.028 0 2.06-.237 2.817-.681.748-.44 1.183-1.047 1.183-1.819 0-.909-.432-1.484-1.167-1.933A6.651 6.651 0 0 0 11.585 11H3.5a.5.5 0 0 1 0-1h13Z"/></symbol><symbol id="dx-he-strikeout" viewBox="0 0 16 16"><path d="M14 7H9s-1.6-.1-2.5-.9c-.8-.8-.8-1.9-.5-2.3.2-.3.5-.7 1.5-.9 1-.2 3.2.2 4.1.7V1.5c-.7-.3-1.8-.5-3.2-.5C5.1 1 4 2.6 3.7 3c-1.1 1.7 0 3.6.3 4-.1-.1.1.1 0 0H2v2h5c-.1 0 .1 0 0 0 .9.1 2.8.7 2.8 2.3 0 .6-.3 1.1-.7 1.4-.4.3-1.2.4-2.2.4-1.6 0-3.5-1-3.7-1.2v2.3c.2.1 1.6.8 3.8.8 2.2 0 3.2-.5 3.7-.8.5-.3 1.5-1.1 1.5-2.9 0-1.5-.9-2-1.2-2.3-.1-.1.1.1 0 0h3V7Z"/></symbol><symbol id="dx-he-subscript-fluent" viewBox="0 0 20 20"><path d="M13.54 4.12a.5.5 0 0 1 .053.705L9.158 10l4.085 4.766c-.187.294-.34.637-.424 1.041l-4.32-5.039-4.334 5.057a.5.5 0 0 1-.76-.65L7.842 10 3.406 4.825a.5.5 0 1 1 .759-.65L8.499 9.23l4.335-5.057a.5.5 0 0 1 .705-.054ZM15.584 12c-.466 0-.836.42-.836.864a.5.5 0 1 1-1 0c0-.921.747-1.864 1.835-1.864.635 0 1.248.297 1.59.824.358.55.37 1.267-.046 1.975-.212.36-.502.633-.785.856a9.927 9.927 0 0 1-.425.314l-.06.042c-.117.083-.228.16-.335.24-.322.244-.555.467-.677.749h2.096a.5.5 0 1 1 0 1H14.3a.543.543 0 0 1-.05 0 .5.5 0 0 1-.5-.5c0-1.037.606-1.621 1.172-2.047.12-.09.244-.178.362-.26l.057-.041c.136-.097.263-.188.382-.282.239-.188.421-.37.543-.578.252-.428.193-.734.07-.923-.137-.211-.415-.369-.751-.369Z"/></symbol><symbol id="dx-he-subscript" viewBox="0 0 16 16"><g clip-path="url(#clip0_1488_6171)"><path d="M10 2H7.5L5 6.5 2.5 2H0l3.5 6L0 14h2.5L5 9.5 7.5 14H10L6.5 8 10 2Zm3.587 12.886.625-.429c.447-.343.805-.771 1.162-1.2.358-.428.447-.857.447-1.286 0-.514-.178-1.028-.536-1.371-.358-.343-.894-.514-1.609-.6-.447 0-.805.086-1.162.171-.358.086-.626.258-.894.429l.447 1.029.626-.343c.268-.086.447-.172.804-.172.358 0 .626.086.805.257.178.172.268.343.268.6 0 .343-.179.686-.537 1.029-.357.343-.893.857-1.519 1.371l-.983.772V16H16v-1.114h-2.413Z"/></g><defs><clipPath id="clip0_1488_6171"><rect width="16" height="16"/></clipPath></defs></symbol><symbol id="dx-he-superscript-fluent" viewBox="0 0 20 20"><path d="M15.585 3c-.466 0-.836.42-.836.864a.5.5 0 0 1-1 0c0-.921.747-1.864 1.835-1.864.635 0 1.248.297 1.59.824.358.55.37 1.267-.046 1.975-.212.36-.502.633-.785.856a9.844 9.844 0 0 1-.425.313l-.06.043c-.117.083-.228.16-.335.24-.322.244-.555.467-.677.749h2.096a.5.5 0 1 1 0 1H14.25a.5.5 0 0 1-.5-.5c0-1.037.607-1.621 1.173-2.047.12-.09.244-.178.362-.26l.057-.041c.136-.097.263-.188.382-.282.239-.188.421-.37.543-.578.252-.428.193-.734.07-.923C16.2 3.158 15.921 3 15.585 3Zm-2.792 1.223c.086.351.296.654.58.859L9.159 10l4.436 5.174a.5.5 0 1 1-.76.651L8.5 10.768l-4.335 5.057a.5.5 0 0 1-.76-.65L7.842 10 3.406 4.825a.5.5 0 1 1 .759-.65L8.5 9.23l4.293-5.008Z"/></symbol><symbol id="dx-he-superscript" viewBox="0 0 16 16"><path d="m13.587 4.886.625-.429c.447-.343.805-.771 1.162-1.2.358-.428.447-.857.447-1.286 0-.514-.179-1.028-.536-1.371-.358-.343-.894-.514-1.609-.6-.447 0-.805.086-1.162.171-.358.086-.626.258-.894.429l.447 1.029.626-.343c.268-.086.447-.172.804-.172.358 0 .626.086.805.257.178.172.268.343.268.6 0 .343-.179.686-.537 1.029-.357.343-.893.857-1.52 1.371l-.982.772V6H16V4.886h-2.413Z"/><path d="M7.5 2H10L6.5 8l3.5 6H7.5L5 9.5 2.5 14H0l3.5-6L0 2h2.5L5 6.5 7.5 2Z"/></symbol><symbol id="dx-he-underline-fluent" viewBox="0 0 20 20"><path d="M7 3.5a.5.5 0 0 0-1 0V10a4 4 0 0 0 8 0V3.5a.5.5 0 0 0-1 0V10a3 3 0 1 1-6 0V3.5ZM5.5 16a.5.5 0 0 0 0 1h9a.5.5 0 0 0 0-1h-9Z"/></symbol><symbol id="dx-he-underline" viewBox="0 0 16 16"><path d="M2 16h12v-2H2v2Zm6-4c2.829 0 5-2.067 5-5V1h-2v6c0 1.689-1.371 3-3 3S5 8.689 5 7V1H3v6c0 2.933 2.171 5 5 5Z"/></symbol><symbol id="dx-he-undo-fluent" viewBox="0 0 20 20"><path d="M5 2.5a.5.5 0 0 0-1 0v4.9a.6.6 0 0 0 .6.6h4.9a.5.5 0 0 0 0-1H5.906l3.473-3.019a4 4 0 0 1 5.248 6.038l-8.172 7.104a.5.5 0 0 0 .656.754l8.172-7.103a5 5 0 0 0-6.56-7.547L5 6.463V2.5Z"/></symbol><symbol id="dx-he-undo" viewBox="0 0 16 16"><path d="M16 12a7.505 7.505 0 0 0-7.491-7c-2.073 0-3.95.84-5.309 2.197L0 4v8h8.008L4.616 8.61A5.491 5.491 0 0 1 8.509 7a5.504 5.504 0 0 1 5.483 5H16Z"/></symbol><symbol id="dx-he-variable-fluent" viewBox="0 0 20 20"><path fill-rule="evenodd" clip-rule="evenodd" d="M8 6.5a.5.5 0 0 1 1 0V8h2V6.5a.5.5 0 0 1 1 0V8h1.5a.5.5 0 1 1 0 1H12v2h1.5a.5.5 0 1 1 0 1H12v1.5a.5.5 0 1 1-1 0V12H9v1.5a.5.5 0 0 1-1 0V12H6.5a.5.5 0 0 1 0-1H8V9H6.5a.5.5 0 0 1 0-1H8V6.5Zm3 4.5V9H9v2h2ZM4.89 7.812a.5.5 0 1 0-.78-.624L2.116 9.68a.497.497 0 0 0 0 .64l1.994 2.492a.5.5 0 1 0 .78-.624L3.14 10l1.75-2.188Zm10.298-.702a.5.5 0 0 0-.078.702L16.86 10l-1.75 2.188a.5.5 0 1 0 .78.624l1.994-2.492a.5.5 0 0 0 0-.64L15.89 7.188a.5.5 0 0 0-.702-.078Z"/></symbol><symbol id="dx-he-variable" viewBox="0 0 16 16"><path fill-rule="evenodd" clip-rule="evenodd" d="M6.76 10.46h1.681L8.031 13h1.293l.41-2.54H11.5V9.09H9.953l.35-2.18H11.5V5.555h-.98L10.933 3H9.638l-.41 2.554H7.546L7.957 3H6.665l-.411 2.554H4.5v1.357h1.535l-.35 2.178H4.5v1.371h.967L5.057 13H6.35l.41-2.54ZM8.66 9.09h-1.68l.35-2.18h1.68l-.35 2.18Z"/><path d="m2.5 5 1 1-1.75 2 1.75 2-1 1L0 8l2.5-3Z"/><path d="m13.5 5-1 1 1.75 2-1.75 2 1 1L16 8l-2.5-3Z"/></symbol><symbol id="dx-more-fluent" viewBox="0 0 20 20"><path d="M6.25 10a1.25 1.25 0 1 1-2.5 0 1.25 1.25 0 0 1 2.5 0Zm5 0a1.25 1.25 0 1 1-2.5 0 1.25 1.25 0 0 1 2.5 0ZM15 11.25a1.25 1.25 0 1 0 0-2.5 1.25 1.25 0 0 0 0 2.5Z"/></symbol><symbol id="dx-more" viewBox="0 0 16 16"><path d="M4 8a2 2 0 1 1-4 0 2 2 0 0 1 4 0Z"/><path d="M10 8a2 2 0 1 1-4 0 2 2 0 0 1 4 0Z"/><path d="M14 10a2 2 0 1 0 0-4 2 2 0 0 0 0 4Z"/></symbol><symbol id="dx-no-data" viewBox="0 0 48 48"><path fill-rule="evenodd" clip-rule="evenodd" d="M4 34c0 2.2 1.8 4 4 4h32c2.2 0 4-1.8 4-4V18l-9.452-7.562a2 2 0 0 0-1.25-.438H14.702a2 2 0 0 0-1.25.438L4 18v16Zm28-14h8v14H8V20h8v3a2 2 0 0 0 2 2h12a2 2 0 0 0 2-2v-3Z"/></symbol><symbol id="dx-plus-fluent" viewBox="0 0 20 20"><path d="M10 2.5a.5.5 0 0 0-1 0V9H2.5a.5.5 0 0 0 0 1H9v6.5a.5.5 0 0 0 1 0V10h6.5a.5.5 0 0 0 0-1H10V2.5Z"/></symbol><symbol id="dx-plus" viewBox="0 0 16 16"><g clip-path="url(#clip0_1_51)"><path fill-rule="evenodd" clip-rule="evenodd" d="M9.6 6.4V0H6.4v6.4H0v3.2h6.4V16h3.2V9.6H16V6.4H9.6Z"/></g><defs><clipPath id="clip0_1_51"><rect width="16" height="16"/></clipPath></defs></symbol><symbol id="dx-progress-bar-error-fluent" viewBox="0 0 20 20"><path d="M10 2a8 8 0 1 1 0 16 8 8 0 0 1 0-16Zm0 10.5a.75.75 0 1 0 0 1.5.75.75 0 0 0 0-1.5ZM10 6a.5.5 0 0 0-.492.41L9.5 6.5V11l.008.09a.5.5 0 0 0 .984 0L10.5 11V6.5l-.008-.09A.5.5 0 0 0 10 6Z"/></symbol><symbol id="dx-progress-bar-error" viewBox="0 0 16 16"><path fill-rule="evenodd" clip-rule="evenodd" d="m13 11.51-1.49 1.489L8 9.489l-3.51 3.51L3 11.509 6.51 8 3 4.489l1.49-1.49L8 6.509 11.51 3 13 4.489l-3.51 3.51 3.51 3.51Z"/></symbol><symbol id="dx-progress-bar-info-fluent" viewBox="0 0 20 20"><path d="M18 10a8 8 0 1 0-16 0 8 8 0 0 0 16 0ZM9.508 8.91a.5.5 0 0 1 .984 0L10.5 9v4.502l-.008.09a.5.5 0 0 1-.984 0l-.008-.09V9l.008-.09ZM9.25 6.75a.75.75 0 1 1 1.5 0 .75.75 0 0 1-1.5 0Z"/></symbol><symbol id="dx-progress-bar-info" viewBox="0 0 16 16"><path fill-rule="evenodd" clip-rule="evenodd" d="M8 0a8 8 0 1 0 0 16A8 8 0 0 0 8 0Zm1 13H7V7h2v6Zm0-8-2-.061V3h2v2Z"/></symbol><symbol id="dx-progress-bar-pause-fluent" viewBox="0 0 20 20"><path d="M2 10a8 8 0 1 1 16 0 8 8 0 0 1-16 0Zm7-2.5a.5.5 0 0 0-1 0v5a.5.5 0 0 0 1 0v-5Zm3 0a.5.5 0 0 0-1 0v5a.5.5 0 0 0 1 0v-5Z"/></symbol><symbol id="dx-progress-bar-pause" viewBox="0 0 16 16"><path d="M7 3H5v10h2V3Z"/><path d="M11 3H9v10h2V3Z"/></symbol><symbol id="dx-progress-bar-success-fluent" viewBox="0 0 20 20"><path d="M10 2a8 8 0 1 1 0 16 8 8 0 0 1 0-16Zm3.358 5.646a.5.5 0 0 0-.637-.057l-.07.057L9 11.298 7.354 9.651l-.07-.058a.5.5 0 0 0-.695.696l.057.07 2 2 .07.057a.5.5 0 0 0 .568 0l.07-.058 4.004-4.004.058-.07a.5.5 0 0 0-.058-.638Z"/></symbol><symbol id="dx-progress-bar-success" viewBox="0 0 16 16"><path d="m2.4 8 4 4 7.2-7.2-1.128-1.136L6.4 9.736 3.528 6.864 2.4 8Z"/></symbol><symbol id="dx-sc-apt-exception-fluent" viewBox="0 0 20 20"><path d="M2.146 2.146a.5.5 0 0 1 .638-.057l.07.057 15 15 .057.07a.5.5 0 0 1-.695.695l-.07-.057-2.988-2.989a4.991 4.991 0 0 1-.861.126L13 15H7c-.102 0-.203-.003-.304-.01l1.658 1.656a.5.5 0 0 1 .057.638l-.057.07a.5.5 0 0 1-.638.057l-.07-.057-2.5-2.5a.5.5 0 0 1-.057-.638l.057-.07 2.5-2.5a.5.5 0 0 1 .765.638l-.057.07-1.636 1.636.14.008L7 14h6c.095 0 .19-.003.283-.01L5.56 6.267a4.001 4.001 0 0 0-1.665 6.255.5.5 0 1 1-.801.601 5 5 0 0 1 1.707-7.616L2.147 2.855l-.057-.07a.5.5 0 0 1 .057-.638ZM16.5 6.671c.116 0 .223.04.308.107l.067.063.017.02A4.98 4.98 0 0 1 18 10c0 1.608-.76 3.04-1.939 3.954l-.714-.714A3.995 3.995 0 0 0 17 10c0-.953-.334-1.829-.89-2.516a.5.5 0 0 1 .39-.812ZM12.284 2.59l.07.057 2.5 2.5a.5.5 0 0 1 .057.638l-.057.07-2.5 2.5a.5.5 0 0 1-.765-.638l.057-.07 1.637-1.636-.14-.008L13 6H8.106l-1-1H13c.102 0 .203.003.304.01l-1.658-1.656a.5.5 0 0 1-.057-.638l.057-.07a.5.5 0 0 1 .638-.057Z"/></symbol><symbol id="dx-sc-apt-exception" viewBox="0 0 17 16"><path d="M14.002 8h-4l1.6-1.6c-.6-1.4-2-2.4-3.6-2.4-.7 0-1.4.2-2 .6l5.4 5.4h2.2c-.2.5-.5 1-.8 1.5l1.8 1.8-1.4 1.5-1.9-1.9c-.8.7-2 1.1-3.3 1.1-2.2 0-4.1-1.2-5.1-2.9l-1.9 1.9V8h5l-1.6 1.6c.6 1.4 2 2.4 3.6 2.4.7 0 1.4-.2 2-.6L4.602 6h-2.2c.2-.5.5-1 .8-1.5l-1.9-1.8 1.4-1.5 1.9 1.9c.9-.7 2.1-1.1 3.4-1.1 2.2 0 4.1 1.2 5.1 2.9l1.9-1.9v5h-1Z"/></symbol><symbol id="dx-sc-apt-recurrence-fluent" viewBox="0 0 20 20"><path d="M16.5 6.671c.116 0 .223.04.308.107l.067.063.017.02a5 5 0 0 1-3.675 8.135L13 15H7a5.07 5.07 0 0 1-.303-.009l1.657 1.655a.5.5 0 0 1 .057.638l-.057.07a.5.5 0 0 1-.638.057l-.07-.057-2.5-2.5a.5.5 0 0 1-.057-.638l.057-.07 2.5-2.5a.5.5 0 0 1 .765.638l-.057.07-1.637 1.636.14.008L7 14h6a4 4 0 0 0 3.11-6.516.5.5 0 0 1 .39-.812Zm-4.854-4.025a.5.5 0 0 1 .638-.057l.07.057 2.5 2.5.057.07a.5.5 0 0 1 0 .568l-.057.07-2.5 2.5-.07.057a.5.5 0 0 1-.568 0l-.07-.057-.057-.07a.5.5 0 0 1 0-.568l.057-.07 1.637-1.636-.14-.008L13 6H7a4 4 0 0 0-3.105 6.522.5.5 0 1 1-.801.601 5 5 0 0 1 3.689-8.119L7 5h6c.102 0 .203.003.303.009l-1.657-1.655-.057-.07a.5.5 0 0 1 .057-.638Z"/></symbol><symbol id="dx-sc-apt-recurrence" viewBox="0 0 17 16"><path fill-rule="evenodd" clip-rule="evenodd" d="M15.002 8h-5l1.6-1.6c-.6-1.4-2-2.4-3.6-2.4-1.5 0-2.8.8-3.4 2h-2.2c.8-2.3 3-4 5.6-4 2.2 0 4.1 1.2 5.1 2.9l1.9-1.9v5Zm-9 0-1.6 1.6c.6 1.4 2 2.4 3.6 2.4 1.5 0 2.8-.8 3.4-2h2.2c-.8 2.3-3 4-5.6 4-2.2 0-4.1-1.2-5.1-2.9l-1.9 1.9V8h5Z"/></symbol><symbol id="dx-sc-delete-fluent" viewBox="0 0 20 20"><path d="M8.5 4h3a1.5 1.5 0 0 0-3 0Zm-1 0a2.5 2.5 0 0 1 5 0h5a.5.5 0 0 1 0 1h-1.054l-1.194 10.344A3 3 0 0 1 12.272 18H7.728a3 3 0 0 1-2.98-2.656L3.554 5H2.5a.5.5 0 0 1 0-1h5ZM5.741 15.23A2 2 0 0 0 7.728 17h4.544a2 2 0 0 0 1.987-1.77L15.439 5H4.561l1.18 10.23ZM8.5 7.5A.5.5 0 0 1 9 8v6a.5.5 0 0 1-1 0V8a.5.5 0 0 1 .5-.5ZM12 8a.5.5 0 0 0-1 0v6a.5.5 0 0 0 1 0V8Z"/></symbol><symbol id="dx-sc-delete" viewBox="0 0 17 16"><path d="M11.002 0c.6 0 1 .4 1 1h3v2h-14V1h3c0-.6.4-1 1-1h6Z"/><path fill-rule="evenodd" clip-rule="evenodd" d="M2.003 14V4h12v10c0 1.1-.9 2-2 2h-8c-1.1 0-2-.9-2-2Z"/></symbol><symbol id="dx-sc-description-fluent" viewBox="0 0 20 20"><path d="M2.5 5a.5.5 0 0 0 0 1h15a.5.5 0 0 0 0-1h-15Zm0 3a.5.5 0 0 0 0 1h15a.5.5 0 0 0 0-1h-15ZM2 11.5a.5.5 0 0 1 .5-.5h15a.5.5 0 0 1 0 1h-15a.5.5 0 0 1-.5-.5Zm.5 2.5a.5.5 0 0 0 0 1h10a.5.5 0 0 0 0-1h-10Z"/></symbol><symbol id="dx-sc-description" viewBox="0 0 16 16"><path d="M1 3v2h14V3H1Zm0 6h14V7H1v2Zm0 4h10v-2H1v2Z"/></symbol><symbol id="dx-sc-edit-fluent" viewBox="0 0 20 20"><path d="M17.181 2.927a2.975 2.975 0 0 0-4.259-.054l-9.375 9.375a2.438 2.438 0 0 0-.656 1.194l-.877 3.95a.5.5 0 0 0 .597.597l3.926-.873a2.518 2.518 0 0 0 1.234-.678l9.358-9.358a2.975 2.975 0 0 0 .052-4.153Zm-3.552.653a1.975 1.975 0 0 1 2.793 2.793l-.671.671-2.793-2.792.671-.672ZM12.251 4.96l2.793 2.792-7.98 7.98a1.518 1.518 0 0 1-.744.409l-3.16.702.708-3.183c.059-.267.193-.511.387-.704l7.996-7.996Z"/></symbol><symbol id="dx-sc-edit" viewBox="0 0 17 16"><path d="m13.032 5.978 1.804-1.805c.401-.4 0-.902-.4-1.303l-1.304-1.303c-.4-.4-.902-.802-1.304-.4L10.024 2.97l3.008 3.008Z"/><path d="m4.008 15 8.021-8.02-3.008-3.007L1 11.993V15h3.008Z"/></symbol><symbol id="dx-sc-exception-fluent" viewBox="0 0 20 20"><path d="M2.146 2.146a.5.5 0 0 1 .638-.057l.07.057 15 15 .057.07a.5.5 0 0 1-.695.695l-.07-.057-2.988-2.989a4.991 4.991 0 0 1-.861.126L13 15H7c-.102 0-.203-.003-.304-.01l1.658 1.656a.5.5 0 0 1 .057.638l-.057.07a.5.5 0 0 1-.638.057l-.07-.057-2.5-2.5a.5.5 0 0 1-.057-.638l.057-.07 2.5-2.5a.5.5 0 0 1 .765.638l-.057.07-1.636 1.636.14.008L7 14h6c.095 0 .19-.003.283-.01L5.56 6.267a4.001 4.001 0 0 0-1.665 6.255.5.5 0 1 1-.801.601 5 5 0 0 1 1.707-7.616L2.147 2.855l-.057-.07a.5.5 0 0 1 .057-.638ZM16.5 6.671c.116 0 .223.04.308.107l.067.063.017.02A4.98 4.98 0 0 1 18 10c0 1.608-.76 3.04-1.939 3.954l-.714-.714A3.995 3.995 0 0 0 17 10c0-.953-.334-1.829-.89-2.516a.5.5 0 0 1 .39-.812ZM12.284 2.59l.07.057 2.5 2.5a.5.5 0 0 1 .057.638l-.057.07-2.5 2.5a.5.5 0 0 1-.765-.638l.057-.07 1.637-1.636-.14-.008L13 6H8.106l-1-1H13c.102 0 .203.003.304.01l-1.658-1.656a.5.5 0 0 1-.057-.638l.057-.07a.5.5 0 0 1 .638-.057Z"/></symbol><symbol id="dx-sc-exception" viewBox="0 0 16 16"><path d="m11.556 8.044 1.51-1.497C12.446 4.346 10.4 2.761 8 2.761c-.533 0-1.066.088-1.51.264L5.066 1.616C5.956 1.264 6.934 1 8 1c2.934 0 5.334 1.761 6.49 4.138L16 3.642v4.402h-4.444Zm2.044 6.78L1.156 2.497 2.4 1.264l12.445 12.327-1.245 1.233ZM3.2 10.157c.8 1.85 2.667 3.17 4.8 3.17.534 0 1.067-.088 1.511-.264l1.334 1.32c-.89.44-1.867.617-2.934.617a7.006 7.006 0 0 1-6.133-3.61L0 13.327V8.925h4.445L3.2 10.157Z"/></symbol><symbol id="dx-sc-expand-fluent" viewBox="0 0 20 20"><path d="M3.5 3a.5.5 0 0 0-.5.5v4a.5.5 0 0 0 1 0V4.707l3.146 3.147a.5.5 0 1 0 .708-.708L4.707 4H7.5a.5.5 0 0 0 0-1h-4Zm0 14a.5.5 0 0 1-.5-.5v-4a.5.5 0 0 1 1 0v2.793l3.146-3.147a.5.5 0 0 1 .708.708L4.707 16H7.5a.5.5 0 0 1 0 1h-4ZM17 3.5a.5.5 0 0 0-.5-.5h-4a.5.5 0 0 0 0 1h2.793l-3.147 3.146a.5.5 0 0 0 .708.708L16 4.707V7.5a.5.5 0 0 0 1 0v-4ZM16.5 17a.5.5 0 0 0 .5-.5v-4a.5.5 0 0 0-1 0v2.793l-3.146-3.147a.5.5 0 0 0-.708.708L15.293 16H12.5a.5.5 0 0 0 0 1h4Z"/></symbol><symbol id="dx-sc-expand" viewBox="0 0 16 16"><path fill-rule="evenodd" clip-rule="evenodd" d="M13 4.4 10.4 7H9V5.6L11.6 3H10V1h5v5h-2V4.4ZM7 5.6V7H5.6L3 4.4V6H1V1h5v2H4.4L7 5.6Zm-4 6L5.6 9H7v1.4L4.4 13H6v2H1v-5h2v1.6Zm7 1.4h1.6L9 10.4V9h1.4l2.6 2.6V10h2v5h-5v-2Z"/></symbol><symbol id="dx-sc-label-fluent" viewBox="0 0 20 20"><path d="M14 7a1 1 0 1 0 0-2 1 1 0 0 0 0 2Zm-2.87-5a2 2 0 0 0-1.426.584L3.022 9.249a2 2 0 0 0-.002 2.83l4.949 4.948a2 2 0 0 0 2.828 0l6.631-6.63a2 2 0 0 0 .586-1.418l-.008-4.95a2 2 0 0 0-1.986-1.997L11.13 2Zm-.72 1.292A1 1 0 0 1 11.123 3l4.89.032a1 1 0 0 1 .993.999l.008 4.95a1 1 0 0 1-.293.708l-6.63 6.631a1 1 0 0 1-1.415 0l-4.949-4.948a1 1 0 0 1 .001-1.415l6.682-6.665Z"/></symbol><symbol id="dx-sc-label" viewBox="0 0 16 16"><path d="M14.347 1.5H1.654C.738 1.5 0 2.28 0 3.233v9.534C0 13.72.738 14.5 1.654 14.5h12.693c.915 0 1.653-.78 1.653-1.733V3.233c0-.953-.738-1.733-1.653-1.733ZM4 12.5H2v-9h2v9Zm10 0H6v-9h8v9Z"/><path opacity="0.5" d="M14 3.5H6v9h8v-9Z"/></symbol><symbol id="dx-sc-location-fluent" viewBox="0 0 20 20"><path d="M13 9a3 3 0 1 1-6 0 3 3 0 0 1 6 0Zm-1 0a2 2 0 1 0-4 0 2 2 0 0 0 4 0Zm2.95 4.955a7.005 7.005 0 0 0 0-9.904 6.998 6.998 0 0 0-9.9 0 7.005 7.005 0 0 0 0 9.904l1.521 1.499 2.043 1.985.133.118c.775.628 1.91.588 2.64-.118l2.435-2.37 1.128-1.114ZM5.755 4.756a6.002 6.002 0 0 1 8.49 0 6.008 6.008 0 0 1 .176 8.31l-.176.184-1.321 1.304-2.23 2.168-.094.08a.997.997 0 0 1-1.2 0l-.093-.08-2.98-2.905-.572-.567-.176-.183a6.008 6.008 0 0 1 .176-8.31Z"/></symbol><symbol id="dx-sc-location" viewBox="0 0 16 16"><path d="M8 8a2 2 0 1 0 0-4 2 2 0 0 0 0 4Z"/><path fill-rule="evenodd" clip-rule="evenodd" d="M14 6.56C14 2.576 11.15 0 8 0S2 2.576 2 6.56c0 2.656 2.003 5.8 6 9.44 3.998-3.64 6-6.784 6-9.44Zm-2-.05C12 3.771 10.1 2 8 2S4 3.771 4 6.51C4 8.336 5.335 10.498 8 13c2.665-2.502 4-4.664 4-6.49Z"/></symbol><symbol id="dx-sc-recurrence-fluent" viewBox="0 0 20 20"><path d="M16.5 6.671c.116 0 .223.04.308.107l.067.063.017.02a5 5 0 0 1-3.675 8.135L13 15H7a5.07 5.07 0 0 1-.303-.009l1.657 1.655a.5.5 0 0 1 .057.638l-.057.07a.5.5 0 0 1-.638.057l-.07-.057-2.5-2.5a.5.5 0 0 1-.057-.638l.057-.07 2.5-2.5a.5.5 0 0 1 .765.638l-.057.07-1.637 1.636.14.008L7 14h6a4 4 0 0 0 3.11-6.516.5.5 0 0 1 .39-.812Zm-4.854-4.025a.5.5 0 0 1 .638-.057l.07.057 2.5 2.5.057.07a.5.5 0 0 1 0 .568l-.057.07-2.5 2.5-.07.057a.5.5 0 0 1-.568 0l-.07-.057-.057-.07a.5.5 0 0 1 0-.568l.057-.07 1.637-1.636-.14-.008L13 6H7a4 4 0 0 0-3.105 6.522.5.5 0 1 1-.801.601 5 5 0 0 1 3.689-8.119L7 5h6c.102 0 .203.003.303.009l-1.657-1.655-.057-.07a.5.5 0 0 1 .057-.638Z"/></symbol><symbol id="dx-sc-recurrence" viewBox="0 0 16 16"><path d="M16 8h-4.444l1.52-1.496A5.29 5.29 0 0 0 8 2.75c-2.64 0-4.818 1.89-5.244 4.375H.95C1.387 3.669 4.374 1 8.001 1a7.1 7.1 0 0 1 6.461 4.139L16 3.625V8ZM3.165 10.135A5.303 5.303 0 0 0 8 13.25a5.297 5.297 0 0 0 5.005-3.5h1.875C14.09 12.769 11.316 15 8 15a7.095 7.095 0 0 1-6.16-3.561L0 13.25V8.875h4.445l-1.28 1.26Z"/></symbol><symbol id="dx-sc-resource" viewBox="0 0 17 16"><path d="M12.002 10h-3v3h3v-3Z"/><path fill-rule="evenodd" clip-rule="evenodd" d="M3.002 1a1 1 0 1 1 2 0v1h6V1a1 1 0 1 1 2 0v1a2 2 0 0 1 2 2v10a2 2 0 0 1-2 2h-10a2 2 0 0 1-2-2V4a2 2 0 0 1 2-2V1Zm10 13V8h-10v6h10Zm-10-9a1 1 0 0 1 1-1h8a1 1 0 0 1 1 1v1h-10V5Z"/></symbol><symbol id="dx-sc-save-fluent" viewBox="0 0 20 20"><path d="M3 5a2 2 0 0 1 2-2h8.379a2 2 0 0 1 1.414.586l1.621 1.621A2 2 0 0 1 17 6.621V15a2 2 0 0 1-2 2H5a2 2 0 0 1-2-2V5Zm2-1a1 1 0 0 0-1 1v10a1 1 0 0 0 1 1v-4.5A1.5 1.5 0 0 1 6.5 10h7a1.5 1.5 0 0 1 1.5 1.5V16a1 1 0 0 0 1-1V6.621a1 1 0 0 0-.293-.707l-1.621-1.621A1 1 0 0 0 13.379 4H13v2.5A1.5 1.5 0 0 1 11.5 8h-4A1.5 1.5 0 0 1 6 6.5V4H5Zm2 0v2.5a.5.5 0 0 0 .5.5h4a.5.5 0 0 0 .5-.5V4H7Zm7 12v-4.5a.5.5 0 0 0-.5-.5h-7a.5.5 0 0 0-.5.5V16h8Z"/></symbol><symbol id="dx-sc-save" viewBox="0 0 17 16"><path d="M10.002 5h-8V2h8v3Zm-2 9a3 3 0 1 1 0-6 3 3 0 0 1 0 6Zm4-14h-10a2 2 0 0 0-2 2v12a2 2 0 0 0 2 2h12a2 2 0 0 0 2-2V4l-4-4Z"/></symbol><symbol id="dx-sc-settings-fluent" viewBox="0 0 20 20"><path d="M1.911 7.383a8.491 8.491 0 0 1 1.78-3.08.5.5 0 0 1 .54-.135l1.918.686a1 1 0 0 0 1.32-.762l.366-2.006a.5.5 0 0 1 .388-.4 8.532 8.532 0 0 1 3.554 0 .5.5 0 0 1 .388.4l.366 2.006a1 1 0 0 0 1.32.762l1.919-.686a.5.5 0 0 1 .54.136 8.491 8.491 0 0 1 1.78 3.079.5.5 0 0 1-.153.535l-1.555 1.32a1 1 0 0 0 0 1.524l1.555 1.32a.5.5 0 0 1 .152.535 8.491 8.491 0 0 1-1.78 3.08.5.5 0 0 1-.54.135l-1.918-.686a1 1 0 0 0-1.32.762l-.366 2.007a.5.5 0 0 1-.388.399 8.528 8.528 0 0 1-3.554 0 .5.5 0 0 1-.388-.4l-.366-2.006a1 1 0 0 0-1.32-.762l-1.918.686a.5.5 0 0 1-.54-.136 8.49 8.49 0 0 1-1.78-3.079.5.5 0 0 1 .152-.535l1.555-1.32a1 1 0 0 0 0-1.524l-1.555-1.32a.5.5 0 0 1-.152-.535Zm1.06-.006 1.294 1.098a2 2 0 0 1 0 3.05l-1.293 1.098c.292.782.713 1.51 1.244 2.152l1.596-.57a2 2 0 0 1 2.64 1.525l.305 1.668a7.556 7.556 0 0 0 2.486 0l.304-1.67a1.998 1.998 0 0 1 2.641-1.524l1.596.571a7.492 7.492 0 0 0 1.245-2.152l-1.294-1.098a1.998 1.998 0 0 1 0-3.05l1.294-1.098a7.491 7.491 0 0 0-1.245-2.152l-1.596.57a2 2 0 0 1-2.64-1.524l-.305-1.669a7.555 7.555 0 0 0-2.486 0l-.304 1.669a2 2 0 0 1-2.64 1.525l-1.597-.571a7.491 7.491 0 0 0-1.244 2.152ZM7.502 10a2.5 2.5 0 1 1 5 0 2.5 2.5 0 0 1-5 0Zm1 0a1.5 1.5 0 1 0 3 0 1.5 1.5 0 0 0-3 0Z"/></symbol><symbol id="dx-sc-settings" viewBox="0 0 17 16"><path d="M8.002 4.8c1.8 0 3.3 1.4 3.3 3.2 0 1.8-1.5 3.2-3.3 3.2-1.8 0-3.3-1.4-3.3-3.2 0-1.8 1.5-3.2 3.3-3.2Zm0 1.6c-.9 0-1.6.7-1.6 1.6 0 .9.7 1.6 1.6 1.6.9 0 1.6-.7 1.6-1.6 0-.9-.7-1.6-1.6-1.6Zm-1.6 9.6c-.2 0-.4-.1-.4-.3l-.3-2.1c-.5-.2-1-.5-1.4-.8l-2 .8c-.2.1-.4 0-.5-.2l-1.6-2.8c-.2-.2-.2-.4 0-.5l1.7-1.3-.1-.8.1-.8-1.7-1.3c-.2-.1-.2-.3-.1-.5l1.6-2.8c.1-.2.3-.2.5-.2l2 .8c.4-.3.9-.6 1.4-.8l.3-2.1c.1-.2.2-.3.5-.3h3.3c.2 0 .4.1.4.3l.3 2.1c.5.2 1 .5 1.4.8l2-.8c.2-.1.4 0 .5.2l1.6 2.8c.1.2.1.4-.1.5l-1.7 1.3.1.8-.1.8 1.7 1.3c.2.1.2.3.1.5l-1.6 2.8c-.1.2-.3.2-.5.2l-2-.8c-.4.3-.9.6-1.4.8l-.3 2.1c0 .2-.2.3-.4.3h-3.3Zm1-14.4-.3 2.1c-1 .2-1.9.7-2.5 1.4l-2-.8-.6 1 1.7 1.2c-.3.9-.3 2 0 2.9l-1.7 1.3.6 1 2-.8c.6.7 1.5 1.2 2.5 1.4l.3 2.1h1.2l.3-2.1c1-.2 1.8-.7 2.5-1.4l2 .8.6-1-1.7-1.2c.3-.9.3-2 0-2.9l1.7-1.3-.6-1-2 .8c-.6-.7-1.5-1.2-2.5-1.4l-.3-2.1h-1.2Z"/></symbol><symbol id="dx-sc-status-fluent" viewBox="0 0 20 20"><path d="M5 6a4 4 0 1 1 8 0 4 4 0 0 1-8 0Zm4-3a3 3 0 1 0 0 6 3 3 0 0 0 0-6ZM2 13c0-1.113.903-2 2.009-2h6.248a5.503 5.503 0 0 0-.657 1H4.009C3.448 12 3 12.447 3 13c0 1.309.622 2.284 1.673 2.953C5.743 16.636 7.265 17 9 17c.2 0 .398-.005.592-.015.173.342.381.662.618.958-.395.038-.8.057-1.21.057-1.855 0-3.583-.386-4.865-1.203C2.833 15.967 2 14.69 2 13Zm17 1.5a4.5 4.5 0 1 1-9 0 4.5 4.5 0 0 1 9 0Zm-2.146-1.854a.5.5 0 0 0-.708 0L13.5 15.293l-.646-.647a.5.5 0 0 0-.708.708l1 1a.5.5 0 0 0 .708 0l3-3a.5.5 0 0 0 0-.708Z"/></symbol><symbol id="dx-sc-status" viewBox="0 0 16 16"><path d="M14.347 1.5H1.654C.738 1.5 0 2.28 0 3.233v9.534C0 13.72.738 14.5 1.654 14.5h12.693c.915 0 1.653-.78 1.653-1.733V3.233c0-.953-.738-1.733-1.653-1.733ZM4 12.5H2v-9h2v9Zm10 0H6v-9h8v9Z"/><path opacity="0.5" d="M4 3.5H2v9h2v-9Z"/></symbol><symbol id="dx-sc-time-fluent" viewBox="0 0 20 20"><path d="M10 2a8 8 0 1 1 0 16 8 8 0 0 1 0-16Zm0 1a7 7 0 1 0 0 14 7 7 0 0 0 0-14Zm-.5 2a.5.5 0 0 1 .492.41L10 5.5V10h2.5a.5.5 0 0 1 .09.992L12.5 11h-3a.5.5 0 0 1-.492-.41L9 10.5v-5a.5.5 0 0 1 .5-.5Z"/></symbol><symbol id="dx-sc-time" viewBox="0 0 17 16"><path d="M7.003 4a1 1 0 0 1 2 0v3h2a1 1 0 1 1 0 2h-3a1 1 0 0 1-1-1V4Z"/><path fill-rule="evenodd" clip-rule="evenodd" d="M8.002 16a8 8 0 1 0 0-16 8 8 0 0 0 0 16Zm0-2a6 6 0 1 0 0-12 6 6 0 0 0 0 12Z"/></symbol><symbol id="dx-sc-timezone-fluent" viewBox="0 0 20 20"><path d="M10 18a8 8 0 1 0 0-16 8 8 0 0 0 0 16Zm0-15c.657 0 1.407.59 2.022 1.908.217.466.406 1.002.559 1.592H7.419c.153-.59.342-1.126.56-1.592C8.592 3.59 9.342 3 10 3ZM7.072 4.485A10.502 10.502 0 0 0 6.389 6.5H3.936a7.022 7.022 0 0 1 3.778-3.118c-.241.33-.456.704-.642 1.103ZM6.192 7.5A15.97 15.97 0 0 0 6 10c0 .87.067 1.712.193 2.5H3.46A6.984 6.984 0 0 1 3 10c0-.88.163-1.724.46-2.5h2.733Zm.197 6c.176.743.407 1.422.683 2.015.186.399.401.773.642 1.103A7.022 7.022 0 0 1 3.936 13.5H6.39Zm1.03 0h5.162a9.248 9.248 0 0 1-.56 1.592C11.408 16.41 10.658 17 10 17c-.657 0-1.407-.59-2.022-1.908A9.254 9.254 0 0 1 7.42 13.5Zm5.375-1H7.206A14.87 14.87 0 0 1 7 10c0-.883.073-1.725.206-2.5h5.588c.133.775.206 1.617.206 2.5s-.073 1.725-.206 2.5Zm.817 1h2.453a7.022 7.022 0 0 1-3.778 3.118c.241-.33.456-.704.642-1.103.276-.593.507-1.272.683-2.015Zm2.93-1h-2.734c.126-.788.193-1.63.193-2.5 0-.87-.067-1.712-.193-2.5h2.733c.297.776.46 1.62.46 2.5 0 .88-.163 1.724-.46 2.5Zm-4.255-9.118A7.021 7.021 0 0 1 16.064 6.5H13.61a10.504 10.504 0 0 0-.683-2.015 6.635 6.635 0 0 0-.642-1.103Z"/></symbol><symbol id="dx-sc-timezone" viewBox="0 0 11 11"><path fill-rule="evenodd" clip-rule="evenodd" d="M5.5 11a5.5 5.5 0 1 0 0-11 5.5 5.5 0 0 0 0 11Zm4.068-6.188A4.128 4.128 0 0 0 7.6 1.95c.336.793.561 1.78.629 2.864h1.339Zm0 1.375A4.128 4.128 0 0 1 7.6 9.052c.336-.793.561-1.78.629-2.864h1.339ZM6.851 4.813c-.076-1.054-.32-1.953-.636-2.586-.192-.383-.384-.619-.533-.744a.586.586 0 0 0-.175-.106.036.036 0 0 0-.014 0 .586.586 0 0 0-.175.106c-.149.125-.341.36-.533.744-.316.633-.56 1.532-.636 2.587h2.702ZM4.149 6.188h2.702c-.076 1.055-.32 1.954-.636 2.587-.192.383-.384.619-.533.744a.586.586 0 0 1-.175.106.036.036 0 0 1-.014 0 .586.586 0 0 1-.175-.106c-.149-.125-.341-.36-.533-.744-.316-.633-.56-1.532-.636-2.586ZM2.771 4.813c.068-1.084.293-2.07.629-2.863a4.128 4.128 0 0 0-1.968 2.864h1.34ZM1.432 6.188h1.34c.067 1.085.292 2.07.628 2.864a4.128 4.128 0 0 1-1.968-2.864Z"/></symbol><symbol id="dx-search-fluent" viewBox="0 0 20 20"><path d="M8.5 3a5.5 5.5 0 0 1 4.227 9.02l4.127 4.126a.5.5 0 0 1-.638.765l-.07-.057-4.126-4.127A5.5 5.5 0 1 1 8.5 3Zm0 1a4.5 4.5 0 1 0 0 9 4.5 4.5 0 0 0 0-9Z"/></symbol><symbol id="dx-search" viewBox="0 0 16 16"><path fill-rule="evenodd" clip-rule="evenodd" d="M10.508 11.927a6.02 6.02 0 1 1 1.419-1.419l3.78 3.78a1.003 1.003 0 1 1-1.42 1.418l-3.779-3.779Zm.526-4.907a4.013 4.013 0 1 1-8.027 0 4.013 4.013 0 0 1 8.027 0Z"/></symbol><symbol id="dx-send-fluent" viewBox="0 0 20 20"><path d="M2.724 2.053a.5.5 0 0 0-.707.576l1.498 5.618a.5.5 0 0 0 .4.364l6.855 1.142c.279.047.279.447 0 .494l-6.854 1.142a.5.5 0 0 0-.401.364l-1.498 5.618a.5.5 0 0 0 .707.576l15-7.5a.5.5 0 0 0 0-.894l-15-7.5Z"/></symbol><symbol id="dx-send" viewBox="0 0 16 16"><g clip-path="url(#clip0_2074_365)"><path d="m-.004 0 16 8-16 8 1.795-7.18L9.996 8l-8.205-.82L-.004 0Z"/></g><defs><clipPath id="clip0_2074_365"><rect width="16" height="16" transform="translate(-0.00390625)"/></clipPath></defs></symbol><symbol id="dx-size-grip-fluent" viewBox="0 0 12 12"><path d="M9.425 3.06a.5.5 0 0 0-.708-.706L2.353 8.718a.5.5 0 0 0 .708.707L9.425 3.06Z"/><path d="M9.874 6.268a.5.5 0 1 0-.707-.707L5.632 9.096a.5.5 0 0 0 .707.707l3.535-3.535Z"/></symbol><symbol id="dx-size-grip" viewBox="0 0 12 12"><path fill-rule="evenodd" clip-rule="evenodd" d="M10 9V7h2v2h-2Zm0-8h2v2h-2V1Zm-3 9h2v2H7v-2Zm0-6h2v2H7V4ZM4 7h2v2H4V7Zm-3 3h2v2H1v-2Z"/></symbol><symbol id="dx-toast-close-fluent" viewBox="0 0 16 16"><path d="m2.589 2.716.057-.07a.5.5 0 0 1 .638-.057l.07.057L8 7.293l4.646-4.647a.5.5 0 0 1 .708.708L8.707 8l4.647 4.646a.5.5 0 0 1 .057.638l-.057.07a.5.5 0 0 1-.638.057l-.07-.057L8 8.707l-4.646 4.647a.5.5 0 0 1-.708-.708L7.293 8 2.646 3.354a.5.5 0 0 1-.057-.638l.057-.07-.057.07Z"/></symbol><symbol id="dx-toast-close" viewBox="0 0 16 16"><path d="m15 13.501-1.5 1.5-5.5-5.5-5.5 5.5-1.5-1.5 5.5-5.5-5.5-5.5 1.5-1.5 5.5 5.5 5.5-5.5 1.5 1.5-5.5 5.5 5.5 5.5Z"/></symbol><symbol id="dx-toast-danger-fluent" viewBox="0 0 20 20"><path d="M10 2a8 8 0 1 1 0 16 8 8 0 0 1 0-16ZM7.81 7.114a.5.5 0 0 0-.638.058l-.058.069a.5.5 0 0 0 .058.638L9.292 10l-2.12 2.121-.058.07a.5.5 0 0 0 .058.637l.069.058a.5.5 0 0 0 .638-.058L10 10.708l2.121 2.12.07.058a.5.5 0 0 0 .637-.058l.058-.069a.5.5 0 0 0-.058-.638L10.708 10l2.12-2.121.058-.07a.5.5 0 0 0-.058-.637l-.069-.058a.5.5 0 0 0-.638.058L10 9.292l-2.121-2.12-.07-.058Z"/></symbol><symbol id="dx-toast-danger" viewBox="0 0 16 16"><path fill-rule="evenodd" clip-rule="evenodd" d="M8 16A8 8 0 1 0 8 0a8 8 0 0 0 0 16ZM5.707 4.293a1 1 0 0 0-1.414 1.414L6.586 8l-2.293 2.293a1 1 0 1 0 1.414 1.414L8 9.414l2.293 2.293a1 1 0 0 0 1.414-1.414L9.414 8l2.293-2.293a1 1 0 0 0-1.414-1.414L8 6.586 5.707 4.293Z"/></symbol><symbol id="dx-toast-info-fluent" viewBox="0 0 20 20"><path d="M18 10a8 8 0 1 0-16 0 8 8 0 0 0 16 0ZM9.508 8.91a.5.5 0 0 1 .984 0L10.5 9v4.502l-.008.09a.5.5 0 0 1-.984 0l-.008-.09V9l.008-.09ZM9.25 6.75a.75.75 0 1 1 1.5 0 .75.75 0 0 1-1.5 0Z"/></symbol><symbol id="dx-toast-info" viewBox="0 0 16 16"><path fill-rule="evenodd" clip-rule="evenodd" d="M8 0a8 8 0 1 0 0 16A8 8 0 0 0 8 0Zm1 13H7V7h2v6Zm0-8-2-.061V3h2v2Z"/></symbol><symbol id="dx-toast-primary-fluent" viewBox="0 0 20 20"><path d="M18 10a8 8 0 1 0-16 0 8 8 0 0 0 16 0ZM9.508 8.91a.5.5 0 0 1 .984 0L10.5 9v4.502l-.008.09a.5.5 0 0 1-.984 0l-.008-.09V9l.008-.09ZM9.25 6.75a.75.75 0 1 1 1.5 0 .75.75 0 0 1-1.5 0Z"/></symbol><symbol id="dx-toast-primary" viewBox="0 0 16 16"><path fill-rule="evenodd" clip-rule="evenodd" d="M8 16A8 8 0 1 0 8 0a8 8 0 0 0 0 16ZM8 3a1 1 0 0 0-1 1v4a1 1 0 0 0 1 1h3a1 1 0 1 0 0-2H9V4a1 1 0 0 0-1-1Z"/></symbol><symbol id="dx-toast-success-fluent" viewBox="0 0 20 20"><path d="M10 2a8 8 0 1 1 0 16 8 8 0 0 1 0-16Zm3.358 5.646a.5.5 0 0 0-.637-.057l-.07.057L9 11.298 7.354 9.651l-.07-.058a.5.5 0 0 0-.695.696l.057.07 2 2 .07.057a.5.5 0 0 0 .568 0l.07-.058 4.004-4.004.058-.07a.5.5 0 0 0-.058-.638Z"/></symbol><symbol id="dx-toast-success" viewBox="0 0 16 16"><path fill-rule="evenodd" clip-rule="evenodd" d="M8 16A8 8 0 1 0 8 0a8 8 0 0 0 0 16ZM2.5 8.243l1.414-1.415 2.829 2.829L12.399 4l1.415 1.414-7.071 7.071L2.5 8.243Z"/></symbol><symbol id="dx-toast-warning-fluent" viewBox="0 0 20 20"><path d="M8.681 2.785c.568-1.047 2.071-1.047 2.638 0l6.5 12.002A1.5 1.5 0 0 1 16.502 17H3.498a1.5 1.5 0 0 1-1.319-2.215l6.502-12ZM10.5 7.5a.5.5 0 0 0-1 0v4a.5.5 0 0 0 1 0v-4Zm.25 6.25a.75.75 0 1 0-1.5 0 .75.75 0 0 0 1.5 0Z"/></symbol><symbol id="dx-toast-warning" viewBox="0 0 16 16"><path fill-rule="evenodd" clip-rule="evenodd" d="M8 16A8 8 0 1 1 8 0a8 8 0 0 1 0 16ZM9 2H7v8h2V2Zm0 10H7v2h2v-2Z"/></symbol><symbol id="dx-uc-continue-fluent" viewBox="0 0 20 20"><path d="M17.22 8.687a1.498 1.498 0 0 1 0 2.626l-9.997 5.499A1.5 1.5 0 0 1 5 15.499V4.501a1.5 1.5 0 0 1 2.223-1.313l9.997 5.499Zm-.482 1.75a.5.5 0 0 0 0-.875L6.741 4.063A.5.5 0 0 0 6 4.501v10.998a.5.5 0 0 0 .741.438l9.997-5.5Z"/></symbol><symbol id="dx-uc-continue" viewBox="0 0 16 16"><path d="M5 3v10l7-5-7-5Z"/></symbol><symbol id="dx-uc-file-fluent" viewBox="0 0 20 20"><path d="M6 2a2 2 0 0 0-2 2v12a2 2 0 0 0 2 2h8a2 2 0 0 0 2-2V7.414a1.5 1.5 0 0 0-.44-1.06l-3.914-3.915A1.5 1.5 0 0 0 10.586 2H6ZM5 4a1 1 0 0 1 1-1h4v3.5A1.5 1.5 0 0 0 11.5 8H15v8a1 1 0 0 1-1 1H6a1 1 0 0 1-1-1V4Zm9.793 3H11.5a.5.5 0 0 1-.5-.5V3.207L14.793 7Z"/></symbol><symbol id="dx-uc-file" viewBox="0 0 16 16"><g clip-path="url(#clip0_885_18)"><path d="m9 3 3 3H9V3Z"/><path fill-rule="evenodd" clip-rule="evenodd" d="M3 16h10c1.1 0 2-.9 2-2V4l-4-4H3C1.9 0 1 .9 1 2v12c0 1.1.9 2 2 2Zm7-14 3 3v9H3V2h7Z"/></g><defs><clipPath id="clip0_885_18"><rect width="16" height="16"/></clipPath></defs></symbol><symbol id="dx-uc-pause-fluent" viewBox="0 0 20 20"><path d="M5 2a2 2 0 0 0-2 2v12a2 2 0 0 0 2 2h2a2 2 0 0 0 2-2V4a2 2 0 0 0-2-2H5ZM4 4a1 1 0 0 1 1-1h2a1 1 0 0 1 1 1v12a1 1 0 0 1-1 1H5a1 1 0 0 1-1-1V4Zm9-2a2 2 0 0 0-2 2v12a2 2 0 0 0 2 2h2a2 2 0 0 0 2-2V4a2 2 0 0 0-2-2h-2Zm-1 2a1 1 0 0 1 1-1h2a1 1 0 0 1 1 1v12a1 1 0 0 1-1 1h-2a1 1 0 0 1-1-1V4Z"/></symbol><symbol id="dx-uc-pause" viewBox="0 0 16 16"><path d="M7 3H5v10h2V3Z"/><path d="M11 3H9v10h2V3Z"/></symbol><symbol id="dx-uc-reload-fluent" viewBox="0 0 20 20"><path d="M4 10a6 6 0 0 1 10.472-4H12.5a.5.5 0 0 0 0 1h3a.5.5 0 0 0 .5-.5v-3a.5.5 0 0 0-1 0v1.601a7 7 0 1 0 1.98 4.361.5.5 0 1 0-.998.076A6 6 0 1 1 4 10Z"/></symbol><symbol id="dx-uc-reload" viewBox="0 0 17 16"><g clip-path="url(#clip0_102_111)"><path d="M16.003 8v6l-2.2-2.2c-1.2 1.9-3.4 3.2-5.8 3.2-3.9 0-7-3.1-7-7s3.1-7 7-7c3.2 0 5.8 2.1 6.7 5h-2.1c-.8-1.8-2.6-3-4.6-3-2.8 0-5 2.2-5 5s2.2 5 5 5c1.9 0 3.5-1.1 4.4-2.6l-2.4-2.4h6Z"/></g><defs><clipPath id="clip0_102_111"><rect width="16" height="16" transform="translate(0.00250244)"/></clipPath></defs></symbol><symbol id="dx-uc-upload-fluent" viewBox="0 0 20 20"><path d="M15 3.001a.5.5 0 0 0 .09-.992L15 2.001H4a.5.5 0 0 0-.09.992l.09.008h11ZM9.5 18a.5.5 0 0 0 .492-.41l.008-.09-.004-11.794 3.645 3.648a.5.5 0 0 0 .638.059l.07-.058a.5.5 0 0 0 .058-.638l-.058-.07-4.492-4.5a.498.498 0 0 0-.255-.136L9.496 4a.499.499 0 0 0-.395.194L4.644 8.646a.5.5 0 0 0 .637.766l.07-.058 3.645-3.641L9 17.499a.5.5 0 0 0 .5.5Z"/></symbol><symbol id="dx-uc-upload" viewBox="0 0 16 16"><path d="M2.46 5.46 8 0l5.55 5.45-1.42 1.43L9 3.75V12H7V3.75L3.88 6.88 2.46 5.46Z"/><path d="M3 12H1v2a2 2 0 0 0 2 2h10c1.11 0 2-.89 2-2v-2h-2v2H3v-2Z"/></symbol><symbol id="dx-validation-warning-fluent" viewBox="0 0 20 20"><path d="M10 2a8 8 0 1 1 0 16 8 8 0 0 1 0-16Zm0 10.5a.75.75 0 1 0 0 1.5.75.75 0 0 0 0-1.5ZM10 6a.5.5 0 0 0-.492.41L9.5 6.5V11l.008.09a.5.5 0 0 0 .984 0L10.5 11V6.5l-.008-.09A.5.5 0 0 0 10 6Z"/></symbol></svg>